<svg width="198" height="13" viewBox="0 0 198 13" fill="none" xmlns="http://www.w3.org/2000/svg">
<path d="M0.668 10C0.532 10 0.42 9.956 0.332 9.868C0.244 9.78 0.2 9.668 0.2 9.532V1.096C0.2 0.959999 0.244 0.847999 0.332 0.76C0.42 0.672 0.532 0.628 0.668 0.628H7.052C7.188 0.628 7.3 0.672 7.388 0.76C7.476 0.847999 7.52 0.959999 7.52 1.096V9.532C7.52 9.668 7.476 9.78 7.388 9.868C7.3 9.956 7.188 10 7.052 10C6.916 10 6.804 9.956 6.716 9.868C6.628 9.78 6.584 9.668 6.584 9.532V1.504H1.136V9.532C1.136 9.668 1.092 9.78 1.004 9.868C0.916 9.956 0.804 10 0.668 10ZM12.7828 10.06C12.1428 10.06 11.5708 9.916 11.0668 9.628C10.5628 9.34 10.1668 8.944 9.87884 8.44C9.59084 7.936 9.44684 7.364 9.44684 6.724C9.44684 6.076 9.59084 5.5 9.87884 4.996C10.1668 4.492 10.5628 4.096 11.0668 3.808C11.5708 3.52 12.1428 3.376 12.7828 3.376C13.4228 3.376 13.9908 3.52 14.4868 3.808C14.9908 4.096 15.3868 4.492 15.6748 4.996C15.9628 5.5 16.1108 6.076 16.1188 6.724C16.1188 7.364 15.9708 7.936 15.6748 8.44C15.3868 8.944 14.9908 9.34 14.4868 9.628C13.9908 9.916 13.4228 10.06 12.7828 10.06ZM12.7828 9.22C13.2468 9.22 13.6628 9.112 14.0308 8.896C14.3988 8.68 14.6868 8.384 14.8948 8.008C15.1028 7.632 15.2068 7.204 15.2068 6.724C15.2068 6.244 15.1028 5.816 14.8948 5.44C14.6868 5.056 14.3988 4.756 14.0308 4.54C13.6628 4.324 13.2468 4.216 12.7828 4.216C12.3188 4.216 11.9028 4.324 11.5348 4.54C11.1668 4.756 10.8748 5.056 10.6588 5.44C10.4508 5.816 10.3468 6.244 10.3468 6.724C10.3468 7.204 10.4508 7.632 10.6588 8.008C10.8748 8.384 11.1668 8.68 11.5348 8.896C11.9028 9.112 12.3188 9.22 12.7828 9.22ZM20.8079 10.06C20.1759 10.06 19.6159 9.92 19.1279 9.64C18.6399 9.352 18.2559 8.956 17.9759 8.452C17.7039 7.948 17.5679 7.372 17.5679 6.724C17.5679 6.068 17.7119 5.488 17.9999 4.984C18.2879 4.48 18.6839 4.088 19.1879 3.808C19.6919 3.52 20.2639 3.376 20.9039 3.376C21.5519 3.376 22.1239 3.52 22.6199 3.808C23.1239 4.088 23.5159 4.48 23.7959 4.984C24.0839 5.488 24.2319 6.068 24.2399 6.724L23.6999 7.012C23.6999 7.604 23.5759 8.132 23.3279 8.596C23.0799 9.052 22.7359 9.412 22.2959 9.676C21.8639 9.932 21.3679 10.06 20.8079 10.06ZM20.9279 12.592C20.2959 12.592 19.7399 12.472 19.2599 12.232C18.7799 12 18.3839 11.68 18.0719 11.272C17.9839 11.176 17.9439 11.072 17.9519 10.96C17.9679 10.848 18.0279 10.756 18.1319 10.684C18.2359 10.612 18.3519 10.588 18.4799 10.612C18.6079 10.636 18.7079 10.696 18.7799 10.792C19.0119 11.08 19.3079 11.312 19.6679 11.488C20.0359 11.664 20.4599 11.752 20.9399 11.752C21.3879 11.752 21.7919 11.644 22.1519 11.428C22.5119 11.212 22.7959 10.908 23.0039 10.516C23.2199 10.124 23.3279 9.664 23.3279 9.136V7.312L23.6759 6.616L24.2399 6.724V9.172C24.2399 9.82 24.0959 10.4 23.8079 10.912C23.5199 11.432 23.1279 11.84 22.6319 12.136C22.1359 12.44 21.5679 12.592 20.9279 12.592ZM20.9039 9.22C21.3759 9.22 21.7919 9.116 22.1519 8.908C22.5199 8.692 22.8079 8.396 23.0159 8.02C23.2239 7.644 23.3279 7.212 23.3279 6.724C23.3279 6.236 23.2239 5.804 23.0159 5.428C22.8079 5.044 22.5199 4.748 22.1519 4.54C21.7919 4.324 21.3759 4.216 20.9039 4.216C20.4319 4.216 20.0119 4.324 19.6439 4.54C19.2759 4.748 18.9879 5.044 18.7799 5.428C18.5719 5.804 18.4679 6.236 18.4679 6.724C18.4679 7.212 18.5719 7.644 18.7799 8.02C18.9879 8.396 19.2759 8.692 19.6439 8.908C20.0119 9.116 20.4319 9.22 20.9039 9.22ZM28.977 10.06C28.345 10.06 27.785 9.916 27.297 9.628C26.809 9.34 26.425 8.944 26.145 8.44C25.873 7.928 25.737 7.344 25.737 6.688H26.229C26.229 6.12 26.349 5.62 26.589 5.188C26.837 4.748 27.173 4.404 27.597 4.156C28.029 3.908 28.521 3.784 29.073 3.784C29.673 3.784 30.205 3.916 30.669 4.18C31.141 4.444 31.509 4.812 31.773 5.284C32.037 5.756 32.169 6.296 32.169 6.904C32.169 7.52 32.033 8.068 31.761 8.548C31.489 9.02 31.113 9.392 30.633 9.664C30.153 9.928 29.601 10.06 28.977 10.06ZM28.977 9.22C29.425 9.22 29.821 9.124 30.165 8.932C30.509 8.732 30.777 8.46 30.969 8.116C31.169 7.764 31.269 7.36 31.269 6.904C31.269 6.456 31.169 6.06 30.969 5.716C30.777 5.372 30.509 5.104 30.165 4.912C29.821 4.72 29.425 4.624 28.977 4.624C28.521 4.624 28.117 4.72 27.765 4.912C27.413 5.104 27.137 5.372 26.937 5.716C26.745 6.06 26.649 6.456 26.649 6.904C26.649 7.36 26.745 7.764 26.937 8.116C27.137 8.46 27.413 8.732 27.765 8.932C28.117 9.124 28.521 9.22 28.977 9.22ZM25.737 6.724V5.74C25.745 4.676 26.029 3.724 26.589 2.884C27.149 2.036 28.021 1.384 29.205 0.927999L30.969 0.232C31.097 0.184 31.209 0.179999 31.305 0.219999C31.401 0.259999 31.473 0.339999 31.521 0.46C31.561 0.588 31.561 0.7 31.521 0.796C31.489 0.891999 31.397 0.967999 31.245 1.024L29.373 1.792C28.669 2.064 28.101 2.408 27.669 2.824C27.245 3.24 26.937 3.708 26.745 4.228C26.553 4.74 26.457 5.284 26.457 5.86L26.469 6.724H25.737ZM36.9586 10.06C36.3186 10.06 35.7466 9.916 35.2426 9.628C34.7386 9.34 34.3426 8.944 34.0546 8.44C33.7666 7.936 33.6226 7.364 33.6226 6.724C33.6226 6.076 33.7666 5.5 34.0546 4.996C34.3426 4.492 34.7386 4.096 35.2426 3.808C35.7466 3.52 36.3186 3.376 36.9586 3.376C37.5986 3.376 38.1666 3.52 38.6626 3.808C39.1666 4.096 39.5626 4.492 39.8506 4.996C40.1386 5.5 40.2866 6.076 40.2946 6.724C40.2946 7.364 40.1466 7.936 39.8506 8.44C39.5626 8.944 39.1666 9.34 38.6626 9.628C38.1666 9.916 37.5986 10.06 36.9586 10.06ZM36.9586 9.22C37.4226 9.22 37.8386 9.112 38.2066 8.896C38.5746 8.68 38.8626 8.384 39.0706 8.008C39.2786 7.632 39.3826 7.204 39.3826 6.724C39.3826 6.244 39.2786 5.816 39.0706 5.44C38.8626 5.056 38.5746 4.756 38.2066 4.54C37.8386 4.324 37.4226 4.216 36.9586 4.216C36.4946 4.216 36.0786 4.324 35.7106 4.54C35.3426 4.756 35.0506 5.056 34.8346 5.44C34.6266 5.816 34.5226 6.244 34.5226 6.724C34.5226 7.204 34.6266 7.632 34.8346 8.008C35.0506 8.384 35.3426 8.68 35.7106 8.896C36.0786 9.112 36.4946 9.22 36.9586 9.22ZM42.5597 12.808C42.4157 12.808 42.2997 12.764 42.2117 12.676C42.1317 12.596 42.0917 12.484 42.0917 12.34V6.676C42.0997 6.052 42.2477 5.492 42.5357 4.996C42.8317 4.492 43.2277 4.096 43.7237 3.808C44.2277 3.52 44.7917 3.376 45.4157 3.376C46.0557 3.376 46.6277 3.524 47.1317 3.82C47.6357 4.108 48.0317 4.504 48.3197 5.008C48.6157 5.512 48.7637 6.084 48.7637 6.724C48.7637 7.356 48.6197 7.924 48.3317 8.428C48.0517 8.932 47.6677 9.332 47.1797 9.628C46.6917 9.916 46.1397 10.06 45.5237 10.06C44.9877 10.06 44.4997 9.948 44.0597 9.724C43.6277 9.492 43.2797 9.188 43.0157 8.812V12.34C43.0157 12.484 42.9717 12.596 42.8837 12.676C42.8037 12.764 42.6957 12.808 42.5597 12.808ZM45.4157 9.22C45.8797 9.22 46.2957 9.112 46.6637 8.896C47.0317 8.68 47.3197 8.384 47.5277 8.008C47.7437 7.624 47.8517 7.196 47.8517 6.724C47.8517 6.244 47.7437 5.816 47.5277 5.44C47.3197 5.064 47.0317 4.768 46.6637 4.552C46.2957 4.328 45.8797 4.216 45.4157 4.216C44.9597 4.216 44.5477 4.328 44.1797 4.552C43.8117 4.768 43.5237 5.064 43.3157 5.44C43.1077 5.816 43.0037 6.244 43.0037 6.724C43.0037 7.196 43.1077 7.624 43.3157 8.008C43.5237 8.384 43.8117 8.68 44.1797 8.896C44.5477 9.112 44.9597 9.22 45.4157 9.22ZM59.1917 9.88C59.1117 9.96 59.0037 10 58.8677 10C58.7397 10 58.6357 9.956 58.5557 9.868L55.6877 6.724L58.4357 3.58C58.5157 3.492 58.6157 3.444 58.7357 3.436C58.8557 3.428 58.9597 3.46 59.0477 3.532C59.1437 3.62 59.1957 3.72 59.2037 3.832C59.2117 3.936 59.1757 4.036 59.0957 4.132L56.8397 6.676L59.2157 9.292C59.2957 9.38 59.3357 9.48 59.3357 9.592C59.3357 9.696 59.2877 9.792 59.1917 9.88ZM54.5357 10C54.3997 10 54.2917 9.96 54.2117 9.88C54.1317 9.792 54.0917 9.68 54.0917 9.544V3.904C54.0917 3.76 54.1317 3.648 54.2117 3.568C54.2917 3.48 54.3997 3.436 54.5357 3.436C54.6797 3.436 54.7917 3.48 54.8717 3.568C54.9597 3.648 55.0037 3.76 55.0037 3.904V6.28H56.4677V7.12H55.0037V9.544C55.0037 9.68 54.9597 9.792 54.8717 9.88C54.7917 9.96 54.6797 10 54.5357 10ZM63.1243 10.06C62.5083 10.06 61.9563 9.916 61.4683 9.628C60.9803 9.332 60.5923 8.932 60.3043 8.428C60.0243 7.924 59.8843 7.356 59.8843 6.724C59.8843 6.084 60.0283 5.512 60.3163 5.008C60.6123 4.504 61.0123 4.108 61.5163 3.82C62.0203 3.524 62.5883 3.376 63.2203 3.376C63.8523 3.376 64.4163 3.524 64.9123 3.82C65.4163 4.108 65.8123 4.504 66.1003 5.008C66.3963 5.512 66.5483 6.084 66.5563 6.724L66.1843 7.012C66.1843 7.588 66.0483 8.108 65.7763 8.572C65.5123 9.028 65.1483 9.392 64.6843 9.664C64.2283 9.928 63.7083 10.06 63.1243 10.06ZM63.2203 9.22C63.6843 9.22 64.0963 9.112 64.4563 8.896C64.8243 8.68 65.1123 8.384 65.3203 8.008C65.5363 7.624 65.6443 7.196 65.6443 6.724C65.6443 6.244 65.5363 5.816 65.3203 5.44C65.1123 5.064 64.8243 4.768 64.4563 4.552C64.0963 4.328 63.6843 4.216 63.2203 4.216C62.7643 4.216 62.3523 4.328 61.9843 4.552C61.6163 4.768 61.3243 5.064 61.1083 5.44C60.8923 5.816 60.7843 6.244 60.7843 6.724C60.7843 7.196 60.8923 7.624 61.1083 8.008C61.3243 8.384 61.6163 8.68 61.9843 8.896C62.3523 9.112 62.7643 9.22 63.2203 9.22ZM66.0883 10C65.9523 10 65.8403 9.96 65.7523 9.88C65.6643 9.792 65.6203 9.68 65.6203 9.544V7.492L65.8483 6.544L66.5563 6.724V9.544C66.5563 9.68 66.5123 9.792 66.4243 9.88C66.3363 9.96 66.2243 10 66.0883 10ZM72.2534 10.06V9.22C72.7254 9.22 73.1414 9.116 73.5014 8.908C73.8694 8.692 74.1574 8.396 74.3654 8.02C74.5734 7.644 74.6774 7.212 74.6774 6.724C74.6774 6.236 74.5734 5.804 74.3654 5.428C74.1574 5.052 73.8694 4.756 73.5014 4.54C73.1414 4.324 72.7254 4.216 72.2534 4.216V3.376C72.9014 3.376 73.4734 3.52 73.9694 3.808C74.4734 4.096 74.8694 4.492 75.1574 4.996C75.4454 5.492 75.5894 6.068 75.5894 6.724C75.5894 7.372 75.4454 7.948 75.1574 8.452C74.8774 8.948 74.4854 9.34 73.9814 9.628C73.4774 9.916 72.9014 10.06 72.2534 10.06ZM71.3294 10.06C70.6734 10.06 70.0934 9.916 69.5894 9.628C69.0934 9.34 68.7054 8.948 68.4254 8.452C68.1454 7.948 68.0054 7.372 68.0054 6.724C68.0054 6.068 68.1454 5.492 68.4254 4.996C68.7054 4.492 69.0934 4.096 69.5894 3.808C70.0934 3.52 70.6734 3.376 71.3294 3.376V4.216C70.8574 4.216 70.4374 4.324 70.0694 4.54C69.7094 4.756 69.4254 5.052 69.2174 5.428C69.0094 5.804 68.9054 6.236 68.9054 6.724C68.9054 7.212 69.0094 7.644 69.2174 8.02C69.4254 8.396 69.7094 8.692 70.0694 8.908C70.4374 9.116 70.8574 9.22 71.3294 9.22V10.06ZM71.7854 12.808C71.6494 12.808 71.5374 12.764 71.4494 12.676C71.3694 12.596 71.3294 12.484 71.3294 12.34V1.096C71.3294 0.951999 71.3694 0.839999 71.4494 0.76C71.5374 0.672 71.6494 0.628 71.7854 0.628C71.9294 0.628 72.0414 0.672 72.1214 0.76C72.2094 0.839999 72.2534 0.951999 72.2534 1.096V12.34C72.2534 12.484 72.2094 12.596 72.1214 12.676C72.0414 12.764 71.9294 12.808 71.7854 12.808ZM80.3646 10.06C79.7166 10.06 79.1406 9.92 78.6366 9.64C78.1406 9.352 77.7486 8.956 77.4606 8.452C77.1806 7.948 77.0406 7.372 77.0406 6.724C77.0406 6.068 77.1726 5.492 77.4366 4.996C77.7086 4.492 78.0806 4.096 78.5526 3.808C79.0246 3.52 79.5686 3.376 80.1846 3.376C80.7926 3.376 81.3206 3.516 81.7686 3.796C82.2246 4.068 82.5766 4.448 82.8246 4.936C83.0726 5.424 83.1966 5.98 83.1966 6.604C83.1966 6.732 83.1566 6.836 83.0766 6.916C82.9966 6.988 82.8926 7.024 82.7646 7.024H77.6646V6.256H82.8606L82.3446 6.628C82.3526 6.164 82.2686 5.748 82.0926 5.38C81.9166 5.012 81.6646 4.724 81.3366 4.516C81.0166 4.308 80.6326 4.204 80.1846 4.204C79.7286 4.204 79.3286 4.312 78.9846 4.528C78.6406 4.744 78.3726 5.044 78.1806 5.428C77.9966 5.804 77.9046 6.236 77.9046 6.724C77.9046 7.212 78.0086 7.644 78.2166 8.02C78.4326 8.396 78.7246 8.692 79.0926 8.908C79.4606 9.124 79.8846 9.232 80.3646 9.232C80.6526 9.232 80.9406 9.184 81.2286 9.088C81.5246 8.984 81.7606 8.856 81.9366 8.704C82.0246 8.632 82.1246 8.596 82.2366 8.596C82.3486 8.588 82.4446 8.616 82.5246 8.68C82.6286 8.776 82.6806 8.88 82.6806 8.992C82.6886 9.104 82.6446 9.2 82.5486 9.28C82.2846 9.504 81.9486 9.692 81.5406 9.844C81.1326 9.988 80.7406 10.06 80.3646 10.06ZM87.4173 10.06C86.7853 10.06 86.2253 9.92 85.7373 9.64C85.2493 9.352 84.8653 8.956 84.5853 8.452C84.3133 7.948 84.1773 7.372 84.1773 6.724C84.1773 6.068 84.3213 5.488 84.6093 4.984C84.8973 4.48 85.2933 4.088 85.7973 3.808C86.3013 3.52 86.8733 3.376 87.5133 3.376C88.1613 3.376 88.7333 3.52 89.2293 3.808C89.7333 4.088 90.1253 4.48 90.4053 4.984C90.6933 5.488 90.8413 6.068 90.8493 6.724L90.3093 7.012C90.3093 7.604 90.1853 8.132 89.9373 8.596C89.6893 9.052 89.3453 9.412 88.9053 9.676C88.4733 9.932 87.9773 10.06 87.4173 10.06ZM87.5373 12.592C86.9053 12.592 86.3493 12.472 85.8693 12.232C85.3893 12 84.9933 11.68 84.6813 11.272C84.5933 11.176 84.5533 11.072 84.5613 10.96C84.5773 10.848 84.6373 10.756 84.7413 10.684C84.8453 10.612 84.9613 10.588 85.0893 10.612C85.2173 10.636 85.3173 10.696 85.3893 10.792C85.6213 11.08 85.9173 11.312 86.2773 11.488C86.6453 11.664 87.0693 11.752 87.5493 11.752C87.9973 11.752 88.4013 11.644 88.7613 11.428C89.1213 11.212 89.4053 10.908 89.6133 10.516C89.8293 10.124 89.9373 9.664 89.9373 9.136V7.312L90.2853 6.616L90.8493 6.724V9.172C90.8493 9.82 90.7053 10.4 90.4173 10.912C90.1293 11.432 89.7373 11.84 89.2413 12.136C88.7453 12.44 88.1773 12.592 87.5373 12.592ZM87.5133 9.22C87.9853 9.22 88.4013 9.116 88.7613 8.908C89.1293 8.692 89.4173 8.396 89.6253 8.02C89.8333 7.644 89.9373 7.212 89.9373 6.724C89.9373 6.236 89.8333 5.804 89.6253 5.428C89.4173 5.044 89.1293 4.748 88.7613 4.54C88.4013 4.324 87.9853 4.216 87.5133 4.216C87.0413 4.216 86.6213 4.324 86.2533 4.54C85.8853 4.748 85.5973 5.044 85.3893 5.428C85.1813 5.804 85.0773 6.236 85.0773 6.724C85.0773 7.212 85.1813 7.644 85.3893 8.02C85.5973 8.396 85.8853 8.692 86.2533 8.908C86.6213 9.116 87.0413 9.22 87.5133 9.22ZM93.1144 12.808C92.9704 12.808 92.8544 12.764 92.7664 12.676C92.6864 12.596 92.6464 12.484 92.6464 12.34V6.676C92.6544 6.052 92.8024 5.492 93.0904 4.996C93.3864 4.492 93.7824 4.096 94.2784 3.808C94.7824 3.52 95.3464 3.376 95.9704 3.376C96.6104 3.376 97.1824 3.524 97.6864 3.82C98.1904 4.108 98.5864 4.504 98.8744 5.008C99.1704 5.512 99.3184 6.084 99.3184 6.724C99.3184 7.356 99.1744 7.924 98.8864 8.428C98.6064 8.932 98.2224 9.332 97.7344 9.628C97.2464 9.916 96.6944 10.06 96.0784 10.06C95.5424 10.06 95.0544 9.948 94.6144 9.724C94.1824 9.492 93.8344 9.188 93.5704 8.812V12.34C93.5704 12.484 93.5264 12.596 93.4384 12.676C93.3584 12.764 93.2504 12.808 93.1144 12.808ZM95.9704 9.22C96.4344 9.22 96.8504 9.112 97.2184 8.896C97.5864 8.68 97.8744 8.384 98.0824 8.008C98.2984 7.624 98.4064 7.196 98.4064 6.724C98.4064 6.244 98.2984 5.816 98.0824 5.44C97.8744 5.064 97.5864 4.768 97.2184 4.552C96.8504 4.328 96.4344 4.216 95.9704 4.216C95.5144 4.216 95.1024 4.328 94.7344 4.552C94.3664 4.768 94.0784 5.064 93.8704 5.44C93.6624 5.816 93.5584 6.244 93.5584 6.724C93.5584 7.196 93.6624 7.624 93.8704 8.008C94.0784 8.384 94.3664 8.68 94.7344 8.896C95.1024 9.112 95.5144 9.22 95.9704 9.22ZM110.274 10C110.138 10 110.026 9.956 109.938 9.868C109.85 9.78 109.806 9.672 109.806 9.544V6.424C109.806 5.928 109.71 5.52 109.518 5.2C109.334 4.88 109.078 4.64 108.75 4.48C108.43 4.32 108.066 4.24 107.658 4.24C107.266 4.24 106.91 4.316 106.59 4.468C106.278 4.62 106.03 4.828 105.846 5.092C105.662 5.356 105.57 5.656 105.57 5.992H104.91C104.926 5.488 105.062 5.04 105.318 4.648C105.574 4.248 105.914 3.936 106.338 3.712C106.762 3.48 107.234 3.364 107.754 3.364C108.322 3.364 108.83 3.484 109.278 3.724C109.726 3.956 110.078 4.3 110.334 4.756C110.598 5.212 110.73 5.768 110.73 6.424V9.544C110.73 9.672 110.686 9.78 110.598 9.868C110.51 9.956 110.402 10 110.274 10ZM105.114 10C104.97 10 104.854 9.96 104.766 9.88C104.686 9.792 104.646 9.68 104.646 9.544V3.904C104.646 3.76 104.686 3.648 104.766 3.568C104.854 3.48 104.97 3.436 105.114 3.436C105.25 3.436 105.358 3.48 105.438 3.568C105.526 3.648 105.57 3.76 105.57 3.904V9.544C105.57 9.68 105.526 9.792 105.438 9.88C105.358 9.96 105.25 10 105.114 10ZM115.756 10.06C115.116 10.06 114.544 9.916 114.04 9.628C113.536 9.34 113.14 8.944 112.852 8.44C112.564 7.936 112.42 7.364 112.42 6.724C112.42 6.076 112.564 5.5 112.852 4.996C113.14 4.492 113.536 4.096 114.04 3.808C114.544 3.52 115.116 3.376 115.756 3.376C116.396 3.376 116.964 3.52 117.46 3.808C117.964 4.096 118.36 4.492 118.648 4.996C118.936 5.5 119.084 6.076 119.092 6.724C119.092 7.364 118.944 7.936 118.648 8.44C118.36 8.944 117.964 9.34 117.46 9.628C116.964 9.916 116.396 10.06 115.756 10.06ZM115.756 9.22C116.22 9.22 116.636 9.112 117.004 8.896C117.372 8.68 117.66 8.384 117.868 8.008C118.076 7.632 118.18 7.204 118.18 6.724C118.18 6.244 118.076 5.816 117.868 5.44C117.66 5.056 117.372 4.756 117.004 4.54C116.636 4.324 116.22 4.216 115.756 4.216C115.292 4.216 114.876 4.324 114.508 4.54C114.14 4.756 113.848 5.056 113.632 5.44C113.424 5.816 113.32 6.244 113.32 6.724C113.32 7.204 113.424 7.632 113.632 8.008C113.848 8.384 114.14 8.68 114.508 8.896C114.876 9.112 115.292 9.22 115.756 9.22ZM127.26 10.072C126.692 10.072 126.184 9.956 125.736 9.724C125.288 9.484 124.932 9.136 124.668 8.68C124.412 8.224 124.284 7.668 124.284 7.012V3.892C124.284 3.764 124.328 3.656 124.416 3.568C124.504 3.48 124.612 3.436 124.74 3.436C124.876 3.436 124.988 3.48 125.076 3.568C125.164 3.656 125.208 3.764 125.208 3.892V7.012C125.208 7.508 125.3 7.916 125.484 8.236C125.676 8.556 125.932 8.796 126.252 8.956C126.58 9.116 126.948 9.196 127.356 9.196C127.748 9.196 128.1 9.12 128.412 8.968C128.732 8.816 128.984 8.608 129.168 8.344C129.352 8.08 129.444 7.78 129.444 7.444H130.104C130.08 7.948 129.94 8.4 129.684 8.8C129.436 9.192 129.1 9.504 128.676 9.736C128.252 9.96 127.78 10.072 127.26 10.072ZM129.9 10C129.764 10 129.652 9.96 129.564 9.88C129.484 9.792 129.444 9.676 129.444 9.532V3.892C129.444 3.756 129.484 3.648 129.564 3.568C129.652 3.48 129.764 3.436 129.9 3.436C130.036 3.436 130.148 3.48 130.236 3.568C130.324 3.648 130.368 3.756 130.368 3.892V9.532C130.368 9.676 130.324 9.792 130.236 9.88C130.148 9.96 130.036 10 129.9 10ZM138.141 10C138.005 10 137.893 9.96 137.805 9.88C137.717 9.792 137.673 9.676 137.673 9.532V3.904C137.673 3.76 137.717 3.648 137.805 3.568C137.893 3.48 138.005 3.436 138.141 3.436C138.277 3.436 138.385 3.48 138.465 3.568C138.545 3.648 138.585 3.76 138.585 3.904V9.532C138.585 9.676 138.545 9.792 138.465 9.88C138.385 9.96 138.277 10 138.141 10ZM132.981 10C132.845 10 132.733 9.96 132.645 9.88C132.565 9.792 132.525 9.676 132.525 9.532V3.904C132.525 3.76 132.565 3.648 132.645 3.568C132.733 3.48 132.845 3.436 132.981 3.436C133.117 3.436 133.225 3.48 133.305 3.568C133.393 3.648 133.437 3.76 133.437 3.904V9.532C133.437 9.676 133.393 9.792 133.305 9.88C133.225 9.96 133.117 10 132.981 10ZM133.281 7.108V6.28H137.997V7.108H133.281ZM149.608 10C149.472 10 149.36 9.96 149.272 9.88C149.184 9.792 149.14 9.68 149.14 9.544V6.088C149.14 5.52 148.992 5.072 148.696 4.744C148.4 4.408 148.02 4.24 147.556 4.24C147.06 4.24 146.652 4.408 146.332 4.744C146.02 5.072 145.868 5.512 145.876 6.064H145.048C145.056 5.528 145.172 5.056 145.396 4.648C145.62 4.24 145.928 3.924 146.32 3.7C146.712 3.476 147.156 3.364 147.652 3.364C148.124 3.364 148.54 3.476 148.9 3.7C149.268 3.924 149.552 4.24 149.752 4.648C149.96 5.056 150.064 5.536 150.064 6.088V9.544C150.064 9.68 150.02 9.792 149.932 9.88C149.852 9.96 149.744 10 149.608 10ZM141.208 10C141.064 10 140.948 9.96 140.86 9.88C140.78 9.792 140.74 9.68 140.74 9.544V3.904C140.74 3.768 140.78 3.656 140.86 3.568C140.948 3.48 141.064 3.436 141.208 3.436C141.344 3.436 141.452 3.48 141.532 3.568C141.62 3.656 141.664 3.768 141.664 3.904V9.544C141.664 9.68 141.62 9.792 141.532 9.88C141.452 9.96 141.344 10 141.208 10ZM145.42 10C145.284 10 145.172 9.96 145.084 9.88C144.996 9.792 144.952 9.68 144.952 9.544V6.088C144.952 5.52 144.804 5.072 144.508 4.744C144.212 4.408 143.832 4.24 143.368 4.24C142.872 4.24 142.464 4.404 142.144 4.732C141.824 5.052 141.664 5.472 141.664 5.992H141.004C141.02 5.48 141.132 5.028 141.34 4.636C141.556 4.236 141.848 3.924 142.216 3.7C142.584 3.476 143 3.364 143.464 3.364C143.936 3.364 144.352 3.476 144.712 3.7C145.08 3.924 145.364 4.24 145.564 4.648C145.772 5.056 145.876 5.536 145.876 6.088V9.544C145.876 9.68 145.832 9.792 145.744 9.88C145.664 9.96 145.556 10 145.42 10ZM155.083 10.06C154.435 10.06 153.859 9.92 153.355 9.64C152.859 9.352 152.467 8.956 152.179 8.452C151.899 7.948 151.759 7.372 151.759 6.724C151.759 6.068 151.891 5.492 152.155 4.996C152.427 4.492 152.799 4.096 153.271 3.808C153.743 3.52 154.287 3.376 154.903 3.376C155.511 3.376 156.039 3.516 156.487 3.796C156.943 4.068 157.295 4.448 157.543 4.936C157.791 5.424 157.915 5.98 157.915 6.604C157.915 6.732 157.875 6.836 157.795 6.916C157.715 6.988 157.611 7.024 157.483 7.024H152.383V6.256H157.579L157.063 6.628C157.071 6.164 156.987 5.748 156.811 5.38C156.635 5.012 156.383 4.724 156.055 4.516C155.735 4.308 155.351 4.204 154.903 4.204C154.447 4.204 154.047 4.312 153.703 4.528C153.359 4.744 153.091 5.044 152.899 5.428C152.715 5.804 152.623 6.236 152.623 6.724C152.623 7.212 152.727 7.644 152.935 8.02C153.151 8.396 153.443 8.692 153.811 8.908C154.179 9.124 154.603 9.232 155.083 9.232C155.371 9.232 155.659 9.184 155.947 9.088C156.243 8.984 156.479 8.856 156.655 8.704C156.743 8.632 156.843 8.596 156.955 8.596C157.067 8.588 157.163 8.616 157.243 8.68C157.347 8.776 157.399 8.88 157.399 8.992C157.407 9.104 157.363 9.2 157.267 9.28C157.003 9.504 156.667 9.692 156.259 9.844C155.851 9.988 155.459 10.06 155.083 10.06ZM159.946 12.808C159.802 12.808 159.686 12.764 159.598 12.676C159.518 12.596 159.478 12.484 159.478 12.34V6.676C159.486 6.052 159.634 5.492 159.922 4.996C160.218 4.492 160.614 4.096 161.11 3.808C161.614 3.52 162.178 3.376 162.802 3.376C163.442 3.376 164.014 3.524 164.518 3.82C165.022 4.108 165.418 4.504 165.706 5.008C166.002 5.512 166.15 6.084 166.15 6.724C166.15 7.356 166.006 7.924 165.718 8.428C165.438 8.932 165.054 9.332 164.566 9.628C164.078 9.916 163.526 10.06 162.91 10.06C162.374 10.06 161.886 9.948 161.446 9.724C161.014 9.492 160.666 9.188 160.402 8.812V12.34C160.402 12.484 160.358 12.596 160.27 12.676C160.19 12.764 160.082 12.808 159.946 12.808ZM162.802 9.22C163.266 9.22 163.682 9.112 164.05 8.896C164.418 8.68 164.706 8.384 164.914 8.008C165.13 7.624 165.238 7.196 165.238 6.724C165.238 6.244 165.13 5.816 164.914 5.44C164.706 5.064 164.418 4.768 164.05 4.552C163.682 4.328 163.266 4.216 162.802 4.216C162.346 4.216 161.934 4.328 161.566 4.552C161.198 4.768 160.91 5.064 160.702 5.44C160.494 5.816 160.39 6.244 160.39 6.724C160.39 7.196 160.494 7.624 160.702 8.008C160.91 8.384 161.198 8.68 161.566 8.896C161.934 9.112 162.346 9.22 162.802 9.22ZM170.939 10.06C170.291 10.06 169.715 9.92 169.211 9.64C168.715 9.352 168.323 8.956 168.035 8.452C167.755 7.948 167.615 7.372 167.615 6.724C167.615 6.068 167.747 5.492 168.011 4.996C168.283 4.492 168.655 4.096 169.127 3.808C169.599 3.52 170.143 3.376 170.759 3.376C171.367 3.376 171.895 3.516 172.343 3.796C172.799 4.068 173.151 4.448 173.399 4.936C173.647 5.424 173.771 5.98 173.771 6.604C173.771 6.732 173.731 6.836 173.651 6.916C173.571 6.988 173.467 7.024 173.339 7.024H168.239V6.256H173.435L172.919 6.628C172.927 6.164 172.843 5.748 172.667 5.38C172.491 5.012 172.239 4.724 171.911 4.516C171.591 4.308 171.207 4.204 170.759 4.204C170.303 4.204 169.903 4.312 169.559 4.528C169.215 4.744 168.947 5.044 168.755 5.428C168.571 5.804 168.479 6.236 168.479 6.724C168.479 7.212 168.583 7.644 168.791 8.02C169.007 8.396 169.299 8.692 169.667 8.908C170.035 9.124 170.459 9.232 170.939 9.232C171.227 9.232 171.515 9.184 171.803 9.088C172.099 8.984 172.335 8.856 172.511 8.704C172.599 8.632 172.699 8.596 172.811 8.596C172.923 8.588 173.019 8.616 173.099 8.68C173.203 8.776 173.255 8.88 173.255 8.992C173.263 9.104 173.219 9.2 173.123 9.28C172.859 9.504 172.523 9.692 172.115 9.844C171.707 9.988 171.315 10.06 170.939 10.06ZM178.028 10.06C177.396 10.06 176.832 9.916 176.336 9.628C175.848 9.332 175.46 8.932 175.172 8.428C174.892 7.924 174.752 7.356 174.752 6.724C174.752 6.084 174.888 5.512 175.16 5.008C175.432 4.504 175.804 4.108 176.276 3.82C176.748 3.524 177.292 3.376 177.908 3.376C178.396 3.376 178.844 3.472 179.252 3.664C179.668 3.856 180.032 4.144 180.344 4.528C180.432 4.624 180.464 4.728 180.44 4.84C180.416 4.944 180.348 5.036 180.236 5.116C180.148 5.18 180.048 5.204 179.936 5.188C179.832 5.164 179.74 5.104 179.66 5.008C179.196 4.48 178.612 4.216 177.908 4.216C177.46 4.216 177.064 4.324 176.72 4.54C176.384 4.756 176.12 5.052 175.928 5.428C175.744 5.804 175.652 6.236 175.652 6.724C175.652 7.204 175.752 7.632 175.952 8.008C176.152 8.384 176.432 8.68 176.792 8.896C177.152 9.112 177.564 9.22 178.028 9.22C178.34 9.22 178.624 9.18 178.88 9.1C179.144 9.012 179.376 8.88 179.576 8.704C179.672 8.624 179.772 8.58 179.876 8.572C179.98 8.564 180.076 8.596 180.164 8.668C180.26 8.756 180.312 8.856 180.32 8.968C180.336 9.08 180.3 9.176 180.212 9.256C179.628 9.792 178.9 10.06 178.028 10.06ZM185.128 10.06C184.512 10.06 183.96 9.916 183.472 9.628C182.984 9.332 182.596 8.932 182.308 8.428C182.028 7.924 181.888 7.356 181.888 6.724C181.888 6.084 182.032 5.512 182.32 5.008C182.616 4.504 183.016 4.108 183.52 3.82C184.024 3.524 184.592 3.376 185.224 3.376C185.856 3.376 186.42 3.524 186.916 3.82C187.42 4.108 187.816 4.504 188.104 5.008C188.4 5.512 188.552 6.084 188.56 6.724L188.188 7.012C188.188 7.588 188.052 8.108 187.78 8.572C187.516 9.028 187.152 9.392 186.688 9.664C186.232 9.928 185.712 10.06 185.128 10.06ZM185.224 9.22C185.688 9.22 186.1 9.112 186.46 8.896C186.828 8.68 187.116 8.384 187.324 8.008C187.54 7.624 187.648 7.196 187.648 6.724C187.648 6.244 187.54 5.816 187.324 5.44C187.116 5.064 186.828 4.768 186.46 4.552C186.1 4.328 185.688 4.216 185.224 4.216C184.768 4.216 184.356 4.328 183.988 4.552C183.62 4.768 183.328 5.064 183.112 5.44C182.896 5.816 182.788 6.244 182.788 6.724C182.788 7.196 182.896 7.624 183.112 8.008C183.328 8.384 183.62 8.68 183.988 8.896C184.356 9.112 184.768 9.22 185.224 9.22ZM188.092 10C187.956 10 187.844 9.96 187.756 9.88C187.668 9.792 187.624 9.68 187.624 9.544V7.492L187.852 6.544L188.56 6.724V9.544C188.56 9.68 188.516 9.792 188.428 9.88C188.34 9.96 188.228 10 188.092 10ZM190.825 10C190.681 10 190.565 9.96 190.477 9.88C190.397 9.792 190.357 9.676 190.357 9.532V3.904C190.357 3.76 190.397 3.648 190.477 3.568C190.565 3.48 190.681 3.436 190.825 3.436C191.033 3.436 191.201 3.532 191.329 3.724L193.981 7.564L196.633 3.724C196.761 3.532 196.929 3.436 197.137 3.436C197.281 3.436 197.393 3.48 197.473 3.568C197.561 3.648 197.605 3.76 197.605 3.904V9.532C197.605 9.676 197.561 9.792 197.473 9.88C197.393 9.96 197.281 10 197.137 10C196.993 10 196.881 9.96 196.801 9.88C196.721 9.792 196.681 9.676 196.681 9.532V4.504L196.981 4.6L194.413 8.308C194.285 8.492 194.137 8.584 193.969 8.584C193.801 8.584 193.657 8.492 193.537 8.308L190.969 4.636L191.281 4.54V9.532C191.281 9.676 191.241 9.792 191.161 9.88C191.081 9.96 190.969 10 190.825 10Z" fill="black"/>
</svg>
