<svg width="215" height="13" viewBox="0 0 215 13" fill="none" xmlns="http://www.w3.org/2000/svg">
<path d="M0.668 10C0.532 10 0.42 9.956 0.332 9.868C0.244 9.78 0.2 9.668 0.2 9.532V1.096C0.2 0.959999 0.244 0.847999 0.332 0.76C0.42 0.672 0.532 0.628 0.668 0.628H7.052C7.188 0.628 7.3 0.672 7.388 0.76C7.476 0.847999 7.52 0.959999 7.52 1.096V9.532C7.52 9.668 7.476 9.78 7.388 9.868C7.3 9.956 7.188 10 7.052 10C6.916 10 6.804 9.956 6.716 9.868C6.628 9.78 6.584 9.668 6.584 9.532V1.504H1.136V9.532C1.136 9.668 1.092 9.78 1.004 9.868C0.916 9.956 0.804 10 0.668 10ZM12.7828 10.06C12.1428 10.06 11.5708 9.916 11.0668 9.628C10.5628 9.34 10.1668 8.944 9.87884 8.44C9.59084 7.936 9.44684 7.364 9.44684 6.724C9.44684 6.076 9.59084 5.5 9.87884 4.996C10.1668 4.492 10.5628 4.096 11.0668 3.808C11.5708 3.52 12.1428 3.376 12.7828 3.376C13.4228 3.376 13.9908 3.52 14.4868 3.808C14.9908 4.096 15.3868 4.492 15.6748 4.996C15.9628 5.5 16.1108 6.076 16.1188 6.724C16.1188 7.364 15.9708 7.936 15.6748 8.44C15.3868 8.944 14.9908 9.34 14.4868 9.628C13.9908 9.916 13.4228 10.06 12.7828 10.06ZM12.7828 9.22C13.2468 9.22 13.6628 9.112 14.0308 8.896C14.3988 8.68 14.6868 8.384 14.8948 8.008C15.1028 7.632 15.2068 7.204 15.2068 6.724C15.2068 6.244 15.1028 5.816 14.8948 5.44C14.6868 5.056 14.3988 4.756 14.0308 4.54C13.6628 4.324 13.2468 4.216 12.7828 4.216C12.3188 4.216 11.9028 4.324 11.5348 4.54C11.1668 4.756 10.8748 5.056 10.6588 5.44C10.4508 5.816 10.3468 6.244 10.3468 6.724C10.3468 7.204 10.4508 7.632 10.6588 8.008C10.8748 8.384 11.1668 8.68 11.5348 8.896C11.9028 9.112 12.3188 9.22 12.7828 9.22ZM20.8079 10.06C20.1759 10.06 19.6159 9.92 19.1279 9.64C18.6399 9.352 18.2559 8.956 17.9759 8.452C17.7039 7.948 17.5679 7.372 17.5679 6.724C17.5679 6.068 17.7119 5.488 17.9999 4.984C18.2879 4.48 18.6839 4.088 19.1879 3.808C19.6919 3.52 20.2639 3.376 20.9039 3.376C21.5519 3.376 22.1239 3.52 22.6199 3.808C23.1239 4.088 23.5159 4.48 23.7959 4.984C24.0839 5.488 24.2319 6.068 24.2399 6.724L23.6999 7.012C23.6999 7.604 23.5759 8.132 23.3279 8.596C23.0799 9.052 22.7359 9.412 22.2959 9.676C21.8639 9.932 21.3679 10.06 20.8079 10.06ZM20.9279 12.592C20.2959 12.592 19.7399 12.472 19.2599 12.232C18.7799 12 18.3839 11.68 18.0719 11.272C17.9839 11.176 17.9439 11.072 17.9519 10.96C17.9679 10.848 18.0279 10.756 18.1319 10.684C18.2359 10.612 18.3519 10.588 18.4799 10.612C18.6079 10.636 18.7079 10.696 18.7799 10.792C19.0119 11.08 19.3079 11.312 19.6679 11.488C20.0359 11.664 20.4599 11.752 20.9399 11.752C21.3879 11.752 21.7919 11.644 22.1519 11.428C22.5119 11.212 22.7959 10.908 23.0039 10.516C23.2199 10.124 23.3279 9.664 23.3279 9.136V7.312L23.6759 6.616L24.2399 6.724V9.172C24.2399 9.82 24.0959 10.4 23.8079 10.912C23.5199 11.432 23.1279 11.84 22.6319 12.136C22.1359 12.44 21.5679 12.592 20.9279 12.592ZM20.9039 9.22C21.3759 9.22 21.7919 9.116 22.1519 8.908C22.5199 8.692 22.8079 8.396 23.0159 8.02C23.2239 7.644 23.3279 7.212 23.3279 6.724C23.3279 6.236 23.2239 5.804 23.0159 5.428C22.8079 5.044 22.5199 4.748 22.1519 4.54C21.7919 4.324 21.3759 4.216 20.9039 4.216C20.4319 4.216 20.0119 4.324 19.6439 4.54C19.2759 4.748 18.9879 5.044 18.7799 5.428C18.5719 5.804 18.4679 6.236 18.4679 6.724C18.4679 7.212 18.5719 7.644 18.7799 8.02C18.9879 8.396 19.2759 8.692 19.6439 8.908C20.0119 9.116 20.4319 9.22 20.9039 9.22ZM28.977 10.06C28.345 10.06 27.785 9.916 27.297 9.628C26.809 9.34 26.425 8.944 26.145 8.44C25.873 7.928 25.737 7.344 25.737 6.688H26.229C26.229 6.12 26.349 5.62 26.589 5.188C26.837 4.748 27.173 4.404 27.597 4.156C28.029 3.908 28.521 3.784 29.073 3.784C29.673 3.784 30.205 3.916 30.669 4.18C31.141 4.444 31.509 4.812 31.773 5.284C32.037 5.756 32.169 6.296 32.169 6.904C32.169 7.52 32.033 8.068 31.761 8.548C31.489 9.02 31.113 9.392 30.633 9.664C30.153 9.928 29.601 10.06 28.977 10.06ZM28.977 9.22C29.425 9.22 29.821 9.124 30.165 8.932C30.509 8.732 30.777 8.46 30.969 8.116C31.169 7.764 31.269 7.36 31.269 6.904C31.269 6.456 31.169 6.06 30.969 5.716C30.777 5.372 30.509 5.104 30.165 4.912C29.821 4.72 29.425 4.624 28.977 4.624C28.521 4.624 28.117 4.72 27.765 4.912C27.413 5.104 27.137 5.372 26.937 5.716C26.745 6.06 26.649 6.456 26.649 6.904C26.649 7.36 26.745 7.764 26.937 8.116C27.137 8.46 27.413 8.732 27.765 8.932C28.117 9.124 28.521 9.22 28.977 9.22ZM25.737 6.724V5.74C25.745 4.676 26.029 3.724 26.589 2.884C27.149 2.036 28.021 1.384 29.205 0.927999L30.969 0.232C31.097 0.184 31.209 0.179999 31.305 0.219999C31.401 0.259999 31.473 0.339999 31.521 0.46C31.561 0.588 31.561 0.7 31.521 0.796C31.489 0.891999 31.397 0.967999 31.245 1.024L29.373 1.792C28.669 2.064 28.101 2.408 27.669 2.824C27.245 3.24 26.937 3.708 26.745 4.228C26.553 4.74 26.457 5.284 26.457 5.86L26.469 6.724H25.737ZM36.9586 10.06C36.3186 10.06 35.7466 9.916 35.2426 9.628C34.7386 9.34 34.3426 8.944 34.0546 8.44C33.7666 7.936 33.6226 7.364 33.6226 6.724C33.6226 6.076 33.7666 5.5 34.0546 4.996C34.3426 4.492 34.7386 4.096 35.2426 3.808C35.7466 3.52 36.3186 3.376 36.9586 3.376C37.5986 3.376 38.1666 3.52 38.6626 3.808C39.1666 4.096 39.5626 4.492 39.8506 4.996C40.1386 5.5 40.2866 6.076 40.2946 6.724C40.2946 7.364 40.1466 7.936 39.8506 8.44C39.5626 8.944 39.1666 9.34 38.6626 9.628C38.1666 9.916 37.5986 10.06 36.9586 10.06ZM36.9586 9.22C37.4226 9.22 37.8386 9.112 38.2066 8.896C38.5746 8.68 38.8626 8.384 39.0706 8.008C39.2786 7.632 39.3826 7.204 39.3826 6.724C39.3826 6.244 39.2786 5.816 39.0706 5.44C38.8626 5.056 38.5746 4.756 38.2066 4.54C37.8386 4.324 37.4226 4.216 36.9586 4.216C36.4946 4.216 36.0786 4.324 35.7106 4.54C35.3426 4.756 35.0506 5.056 34.8346 5.44C34.6266 5.816 34.5226 6.244 34.5226 6.724C34.5226 7.204 34.6266 7.632 34.8346 8.008C35.0506 8.384 35.3426 8.68 35.7106 8.896C36.0786 9.112 36.4946 9.22 36.9586 9.22ZM42.5597 12.808C42.4157 12.808 42.2997 12.764 42.2117 12.676C42.1317 12.596 42.0917 12.484 42.0917 12.34V6.676C42.0997 6.052 42.2477 5.492 42.5357 4.996C42.8317 4.492 43.2277 4.096 43.7237 3.808C44.2277 3.52 44.7917 3.376 45.4157 3.376C46.0557 3.376 46.6277 3.524 47.1317 3.82C47.6357 4.108 48.0317 4.504 48.3197 5.008C48.6157 5.512 48.7637 6.084 48.7637 6.724C48.7637 7.356 48.6197 7.924 48.3317 8.428C48.0517 8.932 47.6677 9.332 47.1797 9.628C46.6917 9.916 46.1397 10.06 45.5237 10.06C44.9877 10.06 44.4997 9.948 44.0597 9.724C43.6277 9.492 43.2797 9.188 43.0157 8.812V12.34C43.0157 12.484 42.9717 12.596 42.8837 12.676C42.8037 12.764 42.6957 12.808 42.5597 12.808ZM45.4157 9.22C45.8797 9.22 46.2957 9.112 46.6637 8.896C47.0317 8.68 47.3197 8.384 47.5277 8.008C47.7437 7.624 47.8517 7.196 47.8517 6.724C47.8517 6.244 47.7437 5.816 47.5277 5.44C47.3197 5.064 47.0317 4.768 46.6637 4.552C46.2957 4.328 45.8797 4.216 45.4157 4.216C44.9597 4.216 44.5477 4.328 44.1797 4.552C43.8117 4.768 43.5237 5.064 43.3157 5.44C43.1077 5.816 43.0037 6.244 43.0037 6.724C43.0037 7.196 43.1077 7.624 43.3157 8.008C43.5237 8.384 43.8117 8.68 44.1797 8.896C44.5477 9.112 44.9597 9.22 45.4157 9.22ZM59.7197 10C59.5837 10 59.4717 9.956 59.3837 9.868C59.2957 9.78 59.2517 9.672 59.2517 9.544V6.424C59.2517 5.928 59.1557 5.52 58.9637 5.2C58.7797 4.88 58.5237 4.64 58.1957 4.48C57.8757 4.32 57.5117 4.24 57.1037 4.24C56.7117 4.24 56.3557 4.316 56.0357 4.468C55.7237 4.62 55.4757 4.828 55.2917 5.092C55.1077 5.356 55.0157 5.656 55.0157 5.992H54.3557C54.3717 5.488 54.5077 5.04 54.7637 4.648C55.0197 4.248 55.3597 3.936 55.7837 3.712C56.2077 3.48 56.6797 3.364 57.1997 3.364C57.7677 3.364 58.2757 3.484 58.7237 3.724C59.1717 3.956 59.5237 4.3 59.7797 4.756C60.0437 5.212 60.1757 5.768 60.1757 6.424V9.544C60.1757 9.672 60.1317 9.78 60.0437 9.868C59.9557 9.956 59.8477 10 59.7197 10ZM54.5597 10C54.4157 10 54.2997 9.96 54.2117 9.88C54.1317 9.792 54.0917 9.68 54.0917 9.544V3.904C54.0917 3.76 54.1317 3.648 54.2117 3.568C54.2997 3.48 54.4157 3.436 54.5597 3.436C54.6957 3.436 54.8037 3.48 54.8837 3.568C54.9717 3.648 55.0157 3.76 55.0157 3.904V9.544C55.0157 9.68 54.9717 9.792 54.8837 9.88C54.8037 9.96 54.6957 10 54.5597 10ZM62.6808 12.808C62.5368 12.808 62.4208 12.764 62.3328 12.676C62.2528 12.596 62.2128 12.484 62.2128 12.34V6.676C62.2208 6.052 62.3688 5.492 62.6568 4.996C62.9528 4.492 63.3488 4.096 63.8448 3.808C64.3488 3.52 64.9128 3.376 65.5368 3.376C66.1768 3.376 66.7488 3.524 67.2528 3.82C67.7568 4.108 68.1528 4.504 68.4408 5.008C68.7368 5.512 68.8848 6.084 68.8848 6.724C68.8848 7.356 68.7408 7.924 68.4528 8.428C68.1728 8.932 67.7888 9.332 67.3008 9.628C66.8128 9.916 66.2608 10.06 65.6448 10.06C65.1088 10.06 64.6208 9.948 64.1808 9.724C63.7488 9.492 63.4008 9.188 63.1368 8.812V12.34C63.1368 12.484 63.0928 12.596 63.0048 12.676C62.9248 12.764 62.8168 12.808 62.6808 12.808ZM65.5368 9.22C66.0008 9.22 66.4168 9.112 66.7848 8.896C67.1528 8.68 67.4408 8.384 67.6488 8.008C67.8648 7.624 67.9728 7.196 67.9728 6.724C67.9728 6.244 67.8648 5.816 67.6488 5.44C67.4408 5.064 67.1528 4.768 66.7848 4.552C66.4168 4.328 66.0008 4.216 65.5368 4.216C65.0808 4.216 64.6688 4.328 64.3008 4.552C63.9328 4.768 63.6448 5.064 63.4368 5.44C63.2288 5.816 63.1248 6.244 63.1248 6.724C63.1248 7.196 63.2288 7.624 63.4368 8.008C63.6448 8.384 63.9328 8.68 64.3008 8.896C64.6688 9.112 65.0808 9.22 65.5368 9.22ZM73.6852 10.06C73.0452 10.06 72.4732 9.916 71.9692 9.628C71.4652 9.34 71.0692 8.944 70.7812 8.44C70.4932 7.936 70.3492 7.364 70.3492 6.724C70.3492 6.076 70.4932 5.5 70.7812 4.996C71.0692 4.492 71.4652 4.096 71.9692 3.808C72.4732 3.52 73.0452 3.376 73.6852 3.376C74.3252 3.376 74.8932 3.52 75.3892 3.808C75.8932 4.096 76.2892 4.492 76.5772 4.996C76.8652 5.5 77.0132 6.076 77.0212 6.724C77.0212 7.364 76.8732 7.936 76.5772 8.44C76.2892 8.944 75.8932 9.34 75.3892 9.628C74.8932 9.916 74.3252 10.06 73.6852 10.06ZM73.6852 9.22C74.1492 9.22 74.5652 9.112 74.9332 8.896C75.3012 8.68 75.5892 8.384 75.7972 8.008C76.0052 7.632 76.1092 7.204 76.1092 6.724C76.1092 6.244 76.0052 5.816 75.7972 5.44C75.5892 5.056 75.3012 4.756 74.9332 4.54C74.5652 4.324 74.1492 4.216 73.6852 4.216C73.2212 4.216 72.8052 4.324 72.4372 4.54C72.0692 4.756 71.7772 5.056 71.5612 5.44C71.3532 5.816 71.2492 6.244 71.2492 6.724C71.2492 7.204 71.3532 7.632 71.5612 8.008C71.7772 8.384 72.0692 8.68 72.4372 8.896C72.8052 9.112 73.2212 9.22 73.6852 9.22ZM82.7183 10.06V9.22C83.1903 9.22 83.6063 9.116 83.9663 8.908C84.3343 8.692 84.6223 8.396 84.8303 8.02C85.0383 7.644 85.1423 7.212 85.1423 6.724C85.1423 6.236 85.0383 5.804 84.8303 5.428C84.6223 5.052 84.3343 4.756 83.9663 4.54C83.6063 4.324 83.1903 4.216 82.7183 4.216V3.376C83.3663 3.376 83.9383 3.52 84.4343 3.808C84.9383 4.096 85.3343 4.492 85.6223 4.996C85.9103 5.492 86.0543 6.068 86.0543 6.724C86.0543 7.372 85.9103 7.948 85.6223 8.452C85.3423 8.948 84.9503 9.34 84.4463 9.628C83.9423 9.916 83.3663 10.06 82.7183 10.06ZM81.7943 10.06C81.1383 10.06 80.5583 9.916 80.0543 9.628C79.5583 9.34 79.1703 8.948 78.8903 8.452C78.6103 7.948 78.4703 7.372 78.4703 6.724C78.4703 6.068 78.6103 5.492 78.8903 4.996C79.1703 4.492 79.5583 4.096 80.0543 3.808C80.5583 3.52 81.1383 3.376 81.7943 3.376V4.216C81.3223 4.216 80.9023 4.324 80.5343 4.54C80.1743 4.756 79.8903 5.052 79.6823 5.428C79.4743 5.804 79.3703 6.236 79.3703 6.724C79.3703 7.212 79.4743 7.644 79.6823 8.02C79.8903 8.396 80.1743 8.692 80.5343 8.908C80.9023 9.116 81.3223 9.22 81.7943 9.22V10.06ZM82.2503 12.808C82.1143 12.808 82.0023 12.764 81.9143 12.676C81.8343 12.596 81.7943 12.484 81.7943 12.34V1.096C81.7943 0.951999 81.8343 0.839999 81.9143 0.76C82.0023 0.672 82.1143 0.628 82.2503 0.628C82.3943 0.628 82.5063 0.672 82.5863 0.76C82.6743 0.839999 82.7183 0.951999 82.7183 1.096V12.34C82.7183 12.484 82.6743 12.596 82.5863 12.676C82.5063 12.764 82.3943 12.808 82.2503 12.808ZM90.7094 10.072C90.1414 10.072 89.6334 9.956 89.1854 9.724C88.7374 9.484 88.3814 9.136 88.1174 8.68C87.8614 8.224 87.7334 7.668 87.7334 7.012V3.892C87.7334 3.764 87.7774 3.656 87.8654 3.568C87.9534 3.48 88.0614 3.436 88.1894 3.436C88.3254 3.436 88.4374 3.48 88.5254 3.568C88.6134 3.656 88.6574 3.764 88.6574 3.892V7.012C88.6574 7.508 88.7494 7.916 88.9334 8.236C89.1254 8.556 89.3814 8.796 89.7014 8.956C90.0294 9.116 90.3974 9.196 90.8054 9.196C91.1974 9.196 91.5494 9.12 91.8614 8.968C92.1814 8.816 92.4334 8.608 92.6174 8.344C92.8014 8.08 92.8934 7.78 92.8934 7.444H93.5534C93.5294 7.948 93.3894 8.4 93.1334 8.8C92.8854 9.192 92.5494 9.504 92.1254 9.736C91.7014 9.96 91.2294 10.072 90.7094 10.072ZM93.3494 10C93.2134 10 93.1014 9.96 93.0134 9.88C92.9334 9.792 92.8934 9.676 92.8934 9.532V3.892C92.8934 3.756 92.9334 3.648 93.0134 3.568C93.1014 3.48 93.2134 3.436 93.3494 3.436C93.4854 3.436 93.5974 3.48 93.6854 3.568C93.7734 3.648 93.8174 3.756 93.8174 3.892V9.532C93.8174 9.676 93.7734 9.792 93.6854 9.88C93.5974 9.96 93.4854 10 93.3494 10ZM98.4225 3.436C98.5185 3.436 98.6065 3.46 98.6865 3.508C98.7665 3.556 98.8305 3.636 98.8785 3.748L101.483 9.412C101.539 9.524 101.543 9.632 101.495 9.736C101.455 9.832 101.379 9.908 101.267 9.964C101.139 10.02 101.023 10.032 100.919 10C100.815 9.96 100.731 9.88 100.667 9.76L98.1825 4.228H98.7225L96.1905 9.748C96.1345 9.868 96.0465 9.948 95.9265 9.988C95.8145 10.02 95.6985 10.008 95.5785 9.952C95.4665 9.896 95.3865 9.82 95.3385 9.724C95.2985 9.62 95.3025 9.512 95.3505 9.4L97.9905 3.748C98.0865 3.54 98.2305 3.436 98.4225 3.436ZM106.005 10.06C105.357 10.06 104.781 9.92 104.277 9.64C103.781 9.352 103.389 8.956 103.101 8.452C102.821 7.948 102.681 7.372 102.681 6.724C102.681 6.068 102.813 5.492 103.077 4.996C103.349 4.492 103.721 4.096 104.193 3.808C104.665 3.52 105.209 3.376 105.825 3.376C106.433 3.376 106.961 3.516 107.409 3.796C107.865 4.068 108.217 4.448 108.465 4.936C108.713 5.424 108.837 5.98 108.837 6.604C108.837 6.732 108.797 6.836 108.717 6.916C108.637 6.988 108.533 7.024 108.405 7.024H103.305V6.256H108.501L107.985 6.628C107.993 6.164 107.909 5.748 107.733 5.38C107.557 5.012 107.305 4.724 106.977 4.516C106.657 4.308 106.273 4.204 105.825 4.204C105.369 4.204 104.969 4.312 104.625 4.528C104.281 4.744 104.013 5.044 103.821 5.428C103.637 5.804 103.545 6.236 103.545 6.724C103.545 7.212 103.649 7.644 103.857 8.02C104.073 8.396 104.365 8.692 104.733 8.908C105.101 9.124 105.525 9.232 106.005 9.232C106.293 9.232 106.581 9.184 106.869 9.088C107.165 8.984 107.401 8.856 107.577 8.704C107.665 8.632 107.765 8.596 107.877 8.596C107.989 8.588 108.085 8.616 108.165 8.68C108.269 8.776 108.321 8.88 108.321 8.992C108.329 9.104 108.285 9.2 108.189 9.28C107.925 9.504 107.589 9.692 107.181 9.844C106.773 9.988 106.381 10.06 106.005 10.06ZM113.256 10.072C112.688 10.072 112.18 9.956 111.732 9.724C111.284 9.484 110.928 9.136 110.664 8.68C110.408 8.224 110.28 7.668 110.28 7.012V3.892C110.28 3.764 110.324 3.656 110.412 3.568C110.5 3.48 110.608 3.436 110.736 3.436C110.872 3.436 110.984 3.48 111.072 3.568C111.16 3.656 111.204 3.764 111.204 3.892V7.012C111.204 7.508 111.296 7.916 111.48 8.236C111.672 8.556 111.928 8.796 112.248 8.956C112.576 9.116 112.944 9.196 113.352 9.196C113.744 9.196 114.096 9.12 114.408 8.968C114.728 8.816 114.98 8.608 115.164 8.344C115.348 8.08 115.44 7.78 115.44 7.444H116.1C116.076 7.948 115.936 8.4 115.68 8.8C115.432 9.192 115.096 9.504 114.672 9.736C114.248 9.96 113.776 10.072 113.256 10.072ZM115.896 10C115.76 10 115.648 9.96 115.56 9.88C115.48 9.792 115.44 9.676 115.44 9.532V3.892C115.44 3.756 115.48 3.648 115.56 3.568C115.648 3.48 115.76 3.436 115.896 3.436C116.032 3.436 116.144 3.48 116.232 3.568C116.32 3.648 116.364 3.756 116.364 3.892V9.532C116.364 9.676 116.32 9.792 116.232 9.88C116.144 9.96 116.032 10 115.896 10ZM113.388 2.584C112.996 2.584 112.644 2.52 112.332 2.392C112.02 2.256 111.772 2.072 111.588 1.84C111.412 1.608 111.324 1.348 111.324 1.06C111.324 0.931999 111.364 0.824 111.444 0.736C111.532 0.648 111.636 0.603999 111.756 0.603999C111.884 0.603999 111.988 0.648 112.068 0.736C112.148 0.824 112.188 0.944 112.188 1.096C112.188 1.32 112.304 1.5 112.536 1.636C112.768 1.772 113.052 1.84 113.388 1.84C113.732 1.84 114.016 1.772 114.24 1.636C114.472 1.5 114.588 1.32 114.588 1.096C114.588 0.944 114.628 0.824 114.708 0.736C114.796 0.648 114.9 0.603999 115.02 0.603999C115.148 0.603999 115.252 0.648 115.332 0.736C115.412 0.824 115.452 0.931999 115.452 1.06C115.452 1.348 115.36 1.608 115.176 1.84C115 2.072 114.756 2.256 114.444 2.392C114.132 2.52 113.78 2.584 113.388 2.584ZM127.665 10C127.529 10 127.417 9.956 127.329 9.868C127.241 9.78 127.197 9.672 127.197 9.544V6.424C127.197 5.928 127.101 5.52 126.909 5.2C126.725 4.88 126.469 4.64 126.141 4.48C125.821 4.32 125.457 4.24 125.049 4.24C124.657 4.24 124.301 4.316 123.981 4.468C123.669 4.62 123.421 4.828 123.237 5.092C123.053 5.356 122.961 5.656 122.961 5.992H122.301C122.317 5.488 122.453 5.04 122.709 4.648C122.965 4.248 123.305 3.936 123.729 3.712C124.153 3.48 124.625 3.364 125.145 3.364C125.713 3.364 126.221 3.484 126.669 3.724C127.117 3.956 127.469 4.3 127.725 4.756C127.989 5.212 128.121 5.768 128.121 6.424V9.544C128.121 9.672 128.077 9.78 127.989 9.868C127.901 9.956 127.793 10 127.665 10ZM122.505 10C122.361 10 122.245 9.96 122.157 9.88C122.077 9.792 122.037 9.68 122.037 9.544V3.904C122.037 3.76 122.077 3.648 122.157 3.568C122.245 3.48 122.361 3.436 122.505 3.436C122.641 3.436 122.749 3.48 122.829 3.568C122.917 3.648 122.961 3.76 122.961 3.904V9.544C122.961 9.68 122.917 9.792 122.829 9.88C122.749 9.96 122.641 10 122.505 10ZM133.146 10.06C132.506 10.06 131.934 9.916 131.43 9.628C130.926 9.34 130.53 8.944 130.242 8.44C129.954 7.936 129.81 7.364 129.81 6.724C129.81 6.076 129.954 5.5 130.242 4.996C130.53 4.492 130.926 4.096 131.43 3.808C131.934 3.52 132.506 3.376 133.146 3.376C133.786 3.376 134.354 3.52 134.85 3.808C135.354 4.096 135.75 4.492 136.038 4.996C136.326 5.5 136.474 6.076 136.482 6.724C136.482 7.364 136.334 7.936 136.038 8.44C135.75 8.944 135.354 9.34 134.85 9.628C134.354 9.916 133.786 10.06 133.146 10.06ZM133.146 9.22C133.61 9.22 134.026 9.112 134.394 8.896C134.762 8.68 135.05 8.384 135.258 8.008C135.466 7.632 135.57 7.204 135.57 6.724C135.57 6.244 135.466 5.816 135.258 5.44C135.05 5.056 134.762 4.756 134.394 4.54C134.026 4.324 133.61 4.216 133.146 4.216C132.682 4.216 132.266 4.324 131.898 4.54C131.53 4.756 131.238 5.056 131.022 5.44C130.814 5.816 130.71 6.244 130.71 6.724C130.71 7.204 130.814 7.632 131.022 8.008C131.238 8.384 131.53 8.68 131.898 8.896C132.266 9.112 132.682 9.22 133.146 9.22ZM144.651 10.072C144.083 10.072 143.575 9.956 143.127 9.724C142.679 9.484 142.323 9.136 142.059 8.68C141.803 8.224 141.675 7.668 141.675 7.012V3.892C141.675 3.764 141.719 3.656 141.807 3.568C141.895 3.48 142.003 3.436 142.131 3.436C142.267 3.436 142.379 3.48 142.467 3.568C142.555 3.656 142.599 3.764 142.599 3.892V7.012C142.599 7.508 142.691 7.916 142.875 8.236C143.067 8.556 143.323 8.796 143.643 8.956C143.971 9.116 144.339 9.196 144.747 9.196C145.139 9.196 145.491 9.12 145.803 8.968C146.123 8.816 146.375 8.608 146.559 8.344C146.743 8.08 146.835 7.78 146.835 7.444H147.495C147.471 7.948 147.331 8.4 147.075 8.8C146.827 9.192 146.491 9.504 146.067 9.736C145.643 9.96 145.171 10.072 144.651 10.072ZM147.291 10C147.155 10 147.043 9.96 146.955 9.88C146.875 9.792 146.835 9.676 146.835 9.532V3.892C146.835 3.756 146.875 3.648 146.955 3.568C147.043 3.48 147.155 3.436 147.291 3.436C147.427 3.436 147.539 3.48 147.627 3.568C147.715 3.648 147.759 3.756 147.759 3.892V9.532C147.759 9.676 147.715 9.792 147.627 9.88C147.539 9.96 147.427 10 147.291 10ZM155.532 10C155.396 10 155.284 9.96 155.196 9.88C155.108 9.792 155.064 9.676 155.064 9.532V3.904C155.064 3.76 155.108 3.648 155.196 3.568C155.284 3.48 155.396 3.436 155.532 3.436C155.668 3.436 155.776 3.48 155.856 3.568C155.936 3.648 155.976 3.76 155.976 3.904V9.532C155.976 9.676 155.936 9.792 155.856 9.88C155.776 9.96 155.668 10 155.532 10ZM150.372 10C150.236 10 150.124 9.96 150.036 9.88C149.956 9.792 149.916 9.676 149.916 9.532V3.904C149.916 3.76 149.956 3.648 150.036 3.568C150.124 3.48 150.236 3.436 150.372 3.436C150.508 3.436 150.616 3.48 150.696 3.568C150.784 3.648 150.828 3.76 150.828 3.904V9.532C150.828 9.676 150.784 9.792 150.696 9.88C150.616 9.96 150.508 10 150.372 10ZM150.672 7.108V6.28H155.388V7.108H150.672ZM166.999 10C166.863 10 166.751 9.96 166.663 9.88C166.575 9.792 166.531 9.68 166.531 9.544V6.088C166.531 5.52 166.383 5.072 166.087 4.744C165.791 4.408 165.411 4.24 164.947 4.24C164.451 4.24 164.043 4.408 163.723 4.744C163.411 5.072 163.259 5.512 163.267 6.064H162.439C162.447 5.528 162.563 5.056 162.787 4.648C163.011 4.24 163.319 3.924 163.711 3.7C164.103 3.476 164.547 3.364 165.043 3.364C165.515 3.364 165.931 3.476 166.291 3.7C166.659 3.924 166.943 4.24 167.143 4.648C167.351 5.056 167.455 5.536 167.455 6.088V9.544C167.455 9.68 167.411 9.792 167.323 9.88C167.243 9.96 167.135 10 166.999 10ZM158.599 10C158.455 10 158.339 9.96 158.251 9.88C158.171 9.792 158.131 9.68 158.131 9.544V3.904C158.131 3.768 158.171 3.656 158.251 3.568C158.339 3.48 158.455 3.436 158.599 3.436C158.735 3.436 158.843 3.48 158.923 3.568C159.011 3.656 159.055 3.768 159.055 3.904V9.544C159.055 9.68 159.011 9.792 158.923 9.88C158.843 9.96 158.735 10 158.599 10ZM162.811 10C162.675 10 162.563 9.96 162.475 9.88C162.387 9.792 162.343 9.68 162.343 9.544V6.088C162.343 5.52 162.195 5.072 161.899 4.744C161.603 4.408 161.223 4.24 160.759 4.24C160.263 4.24 159.855 4.404 159.535 4.732C159.215 5.052 159.055 5.472 159.055 5.992H158.395C158.411 5.48 158.523 5.028 158.731 4.636C158.947 4.236 159.239 3.924 159.607 3.7C159.975 3.476 160.391 3.364 160.855 3.364C161.327 3.364 161.743 3.476 162.103 3.7C162.471 3.924 162.755 4.24 162.955 4.648C163.163 5.056 163.267 5.536 163.267 6.088V9.544C163.267 9.68 163.223 9.792 163.135 9.88C163.055 9.96 162.947 10 162.811 10ZM172.474 10.06C171.826 10.06 171.25 9.92 170.746 9.64C170.25 9.352 169.858 8.956 169.57 8.452C169.29 7.948 169.15 7.372 169.15 6.724C169.15 6.068 169.282 5.492 169.546 4.996C169.818 4.492 170.19 4.096 170.662 3.808C171.134 3.52 171.678 3.376 172.294 3.376C172.902 3.376 173.43 3.516 173.878 3.796C174.334 4.068 174.686 4.448 174.934 4.936C175.182 5.424 175.306 5.98 175.306 6.604C175.306 6.732 175.266 6.836 175.186 6.916C175.106 6.988 175.002 7.024 174.874 7.024H169.774V6.256H174.97L174.454 6.628C174.462 6.164 174.378 5.748 174.202 5.38C174.026 5.012 173.774 4.724 173.446 4.516C173.126 4.308 172.742 4.204 172.294 4.204C171.838 4.204 171.438 4.312 171.094 4.528C170.75 4.744 170.482 5.044 170.29 5.428C170.106 5.804 170.014 6.236 170.014 6.724C170.014 7.212 170.118 7.644 170.326 8.02C170.542 8.396 170.834 8.692 171.202 8.908C171.57 9.124 171.994 9.232 172.474 9.232C172.762 9.232 173.05 9.184 173.338 9.088C173.634 8.984 173.87 8.856 174.046 8.704C174.134 8.632 174.234 8.596 174.346 8.596C174.458 8.588 174.554 8.616 174.634 8.68C174.738 8.776 174.79 8.88 174.79 8.992C174.798 9.104 174.754 9.2 174.658 9.28C174.394 9.504 174.058 9.692 173.65 9.844C173.242 9.988 172.85 10.06 172.474 10.06ZM177.337 12.808C177.193 12.808 177.077 12.764 176.989 12.676C176.909 12.596 176.869 12.484 176.869 12.34V6.676C176.877 6.052 177.025 5.492 177.313 4.996C177.609 4.492 178.005 4.096 178.501 3.808C179.005 3.52 179.569 3.376 180.193 3.376C180.833 3.376 181.405 3.524 181.909 3.82C182.413 4.108 182.809 4.504 183.097 5.008C183.393 5.512 183.541 6.084 183.541 6.724C183.541 7.356 183.397 7.924 183.109 8.428C182.829 8.932 182.445 9.332 181.957 9.628C181.469 9.916 180.917 10.06 180.301 10.06C179.765 10.06 179.277 9.948 178.837 9.724C178.405 9.492 178.057 9.188 177.793 8.812V12.34C177.793 12.484 177.749 12.596 177.661 12.676C177.581 12.764 177.473 12.808 177.337 12.808ZM180.193 9.22C180.657 9.22 181.073 9.112 181.441 8.896C181.809 8.68 182.097 8.384 182.305 8.008C182.521 7.624 182.629 7.196 182.629 6.724C182.629 6.244 182.521 5.816 182.305 5.44C182.097 5.064 181.809 4.768 181.441 4.552C181.073 4.328 180.657 4.216 180.193 4.216C179.737 4.216 179.325 4.328 178.957 4.552C178.589 4.768 178.301 5.064 178.093 5.44C177.885 5.816 177.781 6.244 177.781 6.724C177.781 7.196 177.885 7.624 178.093 8.008C178.301 8.384 178.589 8.68 178.957 8.896C179.325 9.112 179.737 9.22 180.193 9.22ZM188.329 10.06C187.681 10.06 187.105 9.92 186.601 9.64C186.105 9.352 185.713 8.956 185.425 8.452C185.145 7.948 185.005 7.372 185.005 6.724C185.005 6.068 185.137 5.492 185.401 4.996C185.673 4.492 186.045 4.096 186.517 3.808C186.989 3.52 187.533 3.376 188.149 3.376C188.757 3.376 189.285 3.516 189.733 3.796C190.189 4.068 190.541 4.448 190.789 4.936C191.037 5.424 191.161 5.98 191.161 6.604C191.161 6.732 191.121 6.836 191.041 6.916C190.961 6.988 190.857 7.024 190.729 7.024H185.629V6.256H190.825L190.309 6.628C190.317 6.164 190.233 5.748 190.057 5.38C189.881 5.012 189.629 4.724 189.301 4.516C188.981 4.308 188.597 4.204 188.149 4.204C187.693 4.204 187.293 4.312 186.949 4.528C186.605 4.744 186.337 5.044 186.145 5.428C185.961 5.804 185.869 6.236 185.869 6.724C185.869 7.212 185.973 7.644 186.181 8.02C186.397 8.396 186.689 8.692 187.057 8.908C187.425 9.124 187.849 9.232 188.329 9.232C188.617 9.232 188.905 9.184 189.193 9.088C189.489 8.984 189.725 8.856 189.901 8.704C189.989 8.632 190.089 8.596 190.201 8.596C190.313 8.588 190.409 8.616 190.489 8.68C190.593 8.776 190.645 8.88 190.645 8.992C190.653 9.104 190.609 9.2 190.513 9.28C190.249 9.504 189.913 9.692 189.505 9.844C189.097 9.988 188.705 10.06 188.329 10.06ZM195.418 10.06C194.786 10.06 194.222 9.916 193.726 9.628C193.238 9.332 192.85 8.932 192.562 8.428C192.282 7.924 192.142 7.356 192.142 6.724C192.142 6.084 192.278 5.512 192.55 5.008C192.822 4.504 193.194 4.108 193.666 3.82C194.138 3.524 194.682 3.376 195.298 3.376C195.786 3.376 196.234 3.472 196.642 3.664C197.058 3.856 197.422 4.144 197.734 4.528C197.822 4.624 197.854 4.728 197.83 4.84C197.806 4.944 197.738 5.036 197.626 5.116C197.538 5.18 197.438 5.204 197.326 5.188C197.222 5.164 197.13 5.104 197.05 5.008C196.586 4.48 196.002 4.216 195.298 4.216C194.85 4.216 194.454 4.324 194.11 4.54C193.774 4.756 193.51 5.052 193.318 5.428C193.134 5.804 193.042 6.236 193.042 6.724C193.042 7.204 193.142 7.632 193.342 8.008C193.542 8.384 193.822 8.68 194.182 8.896C194.542 9.112 194.954 9.22 195.418 9.22C195.73 9.22 196.014 9.18 196.27 9.1C196.534 9.012 196.766 8.88 196.966 8.704C197.062 8.624 197.162 8.58 197.266 8.572C197.37 8.564 197.466 8.596 197.554 8.668C197.65 8.756 197.702 8.856 197.71 8.968C197.726 9.08 197.69 9.176 197.602 9.256C197.018 9.792 196.29 10.06 195.418 10.06ZM202.519 10.06C201.903 10.06 201.351 9.916 200.863 9.628C200.375 9.332 199.987 8.932 199.699 8.428C199.419 7.924 199.279 7.356 199.279 6.724C199.279 6.084 199.423 5.512 199.711 5.008C200.007 4.504 200.407 4.108 200.911 3.82C201.415 3.524 201.983 3.376 202.615 3.376C203.247 3.376 203.811 3.524 204.307 3.82C204.811 4.108 205.207 4.504 205.495 5.008C205.791 5.512 205.943 6.084 205.951 6.724L205.579 7.012C205.579 7.588 205.443 8.108 205.171 8.572C204.907 9.028 204.543 9.392 204.079 9.664C203.623 9.928 203.103 10.06 202.519 10.06ZM202.615 9.22C203.079 9.22 203.491 9.112 203.851 8.896C204.219 8.68 204.507 8.384 204.715 8.008C204.931 7.624 205.039 7.196 205.039 6.724C205.039 6.244 204.931 5.816 204.715 5.44C204.507 5.064 204.219 4.768 203.851 4.552C203.491 4.328 203.079 4.216 202.615 4.216C202.159 4.216 201.747 4.328 201.379 4.552C201.011 4.768 200.719 5.064 200.503 5.44C200.287 5.816 200.179 6.244 200.179 6.724C200.179 7.196 200.287 7.624 200.503 8.008C200.719 8.384 201.011 8.68 201.379 8.896C201.747 9.112 202.159 9.22 202.615 9.22ZM205.483 10C205.347 10 205.235 9.96 205.147 9.88C205.059 9.792 205.015 9.68 205.015 9.544V7.492L205.243 6.544L205.951 6.724V9.544C205.951 9.68 205.907 9.792 205.819 9.88C205.731 9.96 205.619 10 205.483 10ZM208.216 10C208.072 10 207.956 9.96 207.868 9.88C207.788 9.792 207.748 9.676 207.748 9.532V3.904C207.748 3.76 207.788 3.648 207.868 3.568C207.956 3.48 208.072 3.436 208.216 3.436C208.424 3.436 208.592 3.532 208.72 3.724L211.372 7.564L214.024 3.724C214.152 3.532 214.32 3.436 214.528 3.436C214.672 3.436 214.784 3.48 214.864 3.568C214.952 3.648 214.996 3.76 214.996 3.904V9.532C214.996 9.676 214.952 9.792 214.864 9.88C214.784 9.96 214.672 10 214.528 10C214.384 10 214.272 9.96 214.192 9.88C214.112 9.792 214.072 9.676 214.072 9.532V4.504L214.372 4.6L211.804 8.308C211.676 8.492 211.528 8.584 211.36 8.584C211.192 8.584 211.048 8.492 210.928 8.308L208.36 4.636L208.672 4.54V9.532C208.672 9.676 208.632 9.792 208.552 9.88C208.472 9.96 208.36 10 208.216 10Z" fill="black"/>
</svg>
