<svg width="358" height="36" viewBox="0 0 358 36" fill="none" xmlns="http://www.w3.org/2000/svg">
<rect width="358" height="36" fill="#EACCCB"/>
<path d="M198.04 24.02C197.747 24.02 197.5 23.9267 197.3 23.74C197.113 23.54 197.02 23.2933 197.02 23V18.08C197.02 17.32 196.88 16.7 196.6 16.22C196.32 15.74 195.94 15.3867 195.46 15.16C194.993 14.92 194.453 14.8 193.84 14.8C193.28 14.8 192.773 14.9133 192.32 15.14C191.867 15.3667 191.507 15.6733 191.24 16.06C190.973 16.4333 190.84 16.8667 190.84 17.36H189.58C189.58 16.52 189.78 15.7733 190.18 15.12C190.593 14.4533 191.153 13.9267 191.86 13.54C192.567 13.1533 193.36 12.96 194.24 12.96C195.16 12.96 195.98 13.16 196.7 13.56C197.433 13.9467 198.007 14.52 198.42 15.28C198.847 16.04 199.06 16.9733 199.06 18.08V23C199.06 23.2933 198.96 23.54 198.76 23.74C198.573 23.9267 198.333 24.02 198.04 24.02ZM189.82 24.02C189.527 24.02 189.28 23.9267 189.08 23.74C188.893 23.54 188.8 23.2933 188.8 23V14.08C188.8 13.7733 188.893 13.5267 189.08 13.34C189.28 13.1533 189.527 13.06 189.82 13.06C190.127 13.06 190.373 13.1533 190.56 13.34C190.747 13.5267 190.84 13.7733 190.84 14.08V23C190.84 23.2933 190.747 23.54 190.56 23.74C190.373 23.9267 190.127 24.02 189.82 24.02ZM207.393 24.08C206.313 24.08 205.359 23.8467 204.533 23.38C203.706 22.9 203.053 22.2467 202.573 21.42C202.106 20.58 201.873 19.62 201.873 18.54C201.873 17.4467 202.106 16.4867 202.573 15.66C203.053 14.82 203.706 14.1667 204.533 13.7C205.359 13.22 206.313 12.98 207.393 12.98C208.459 12.98 209.406 13.22 210.233 13.7C211.059 14.1667 211.706 14.82 212.173 15.66C212.653 16.4867 212.893 17.4467 212.893 18.54C212.893 19.62 212.659 20.58 212.193 21.42C211.726 22.2467 211.079 22.9 210.253 23.38C209.426 23.8467 208.473 24.08 207.393 24.08ZM207.393 22.28C208.086 22.28 208.699 22.12 209.233 21.8C209.766 21.48 210.179 21.04 210.473 20.48C210.779 19.92 210.933 19.2733 210.933 18.54C210.933 17.8067 210.779 17.16 210.473 16.6C210.179 16.0267 209.766 15.58 209.233 15.26C208.699 14.94 208.086 14.78 207.393 14.78C206.699 14.78 206.086 14.94 205.553 15.26C205.019 15.58 204.599 16.0267 204.293 16.6C203.986 17.16 203.833 17.8067 203.833 18.54C203.833 19.2733 203.986 19.92 204.293 20.48C204.599 21.04 205.019 21.48 205.553 21.8C206.086 22.12 206.699 22.28 207.393 22.28ZM226.388 24.1C225.468 24.1 224.642 23.9067 223.908 23.52C223.188 23.12 222.615 22.54 222.188 21.78C221.775 21.02 221.568 20.0867 221.568 18.98V14.06C221.568 13.7667 221.662 13.5267 221.848 13.34C222.048 13.14 222.295 13.04 222.588 13.04C222.882 13.04 223.122 13.14 223.308 13.34C223.508 13.5267 223.608 13.7667 223.608 14.06V18.98C223.608 19.7267 223.748 20.3467 224.028 20.84C224.308 21.32 224.688 21.68 225.168 21.92C225.648 22.1467 226.188 22.26 226.788 22.26C227.362 22.26 227.868 22.1467 228.308 21.92C228.762 21.6933 229.122 21.3867 229.388 21C229.655 20.6133 229.788 20.18 229.788 19.7H231.048C231.048 20.5267 230.842 21.2733 230.428 21.94C230.028 22.6067 229.475 23.1333 228.768 23.52C228.075 23.9067 227.282 24.1 226.388 24.1ZM230.808 24C230.515 24 230.268 23.9067 230.068 23.72C229.882 23.52 229.788 23.2733 229.788 22.98V14.06C229.788 13.7533 229.882 13.5067 230.068 13.32C230.268 13.1333 230.515 13.04 230.808 13.04C231.115 13.04 231.362 13.1333 231.548 13.32C231.735 13.5067 231.828 13.7533 231.828 14.06V22.98C231.828 23.2733 231.735 23.52 231.548 23.72C231.362 23.9067 231.115 24 230.808 24ZM244.621 24C244.328 24 244.081 23.9067 243.881 23.72C243.694 23.52 243.601 23.2733 243.601 22.98V14.08C243.601 13.7733 243.694 13.5267 243.881 13.34C244.081 13.1533 244.328 13.06 244.621 13.06C244.928 13.06 245.168 13.1533 245.341 13.34C245.514 13.5267 245.601 13.7733 245.601 14.08V22.98C245.601 23.2733 245.514 23.52 245.341 23.72C245.168 23.9067 244.928 24 244.621 24ZM236.401 24C236.108 24 235.868 23.9067 235.681 23.72C235.508 23.52 235.421 23.2733 235.421 22.98V14.08C235.421 13.7733 235.508 13.5267 235.681 13.34C235.868 13.1533 236.108 13.06 236.401 13.06C236.708 13.06 236.954 13.1533 237.141 13.34C237.328 13.5267 237.421 13.7733 237.421 14.08V22.98C237.421 23.2733 237.328 23.52 237.141 23.72C236.954 23.9067 236.708 24 236.401 24ZM237.161 19.22V17.42H244.181V19.22H237.161ZM263.57 24.02C263.277 24.02 263.03 23.9267 262.83 23.74C262.643 23.54 262.55 23.2933 262.55 23V17.28C262.55 16.44 262.343 15.82 261.93 15.42C261.517 15.0067 260.977 14.8 260.31 14.8C259.617 14.8 259.043 15.04 258.59 15.52C258.15 16 257.93 16.6133 257.93 17.36H256.27C256.27 16.4933 256.457 15.7333 256.83 15.08C257.203 14.4133 257.723 13.8933 258.39 13.52C259.07 13.1467 259.843 12.96 260.71 12.96C261.47 12.96 262.143 13.1267 262.73 13.46C263.317 13.7933 263.77 14.2867 264.09 14.94C264.423 15.58 264.59 16.36 264.59 17.28V23C264.59 23.2933 264.497 23.54 264.31 23.74C264.123 23.9267 263.877 24.02 263.57 24.02ZM250.23 24.02C249.937 24.02 249.69 23.9267 249.49 23.74C249.303 23.54 249.21 23.2933 249.21 23V14.1C249.21 13.7933 249.303 13.5467 249.49 13.36C249.69 13.1733 249.937 13.08 250.23 13.08C250.537 13.08 250.783 13.1733 250.97 13.36C251.157 13.5467 251.25 13.7933 251.25 14.1V23C251.25 23.2933 251.157 23.54 250.97 23.74C250.783 23.9267 250.537 24.02 250.23 24.02ZM256.91 24.02C256.617 24.02 256.37 23.9267 256.17 23.74C255.983 23.54 255.89 23.2933 255.89 23V17.28C255.89 16.44 255.683 15.82 255.27 15.42C254.857 15.0067 254.317 14.8 253.65 14.8C252.957 14.8 252.383 15.04 251.93 15.52C251.477 16 251.25 16.6133 251.25 17.36H249.99C249.99 16.4933 250.163 15.7333 250.51 15.08C250.857 14.4133 251.337 13.8933 251.95 13.52C252.563 13.1467 253.263 12.96 254.05 12.96C254.81 12.96 255.483 13.1267 256.07 13.46C256.657 13.7933 257.11 14.2867 257.43 14.94C257.763 15.58 257.93 16.36 257.93 17.28V23C257.93 23.2933 257.837 23.54 257.65 23.74C257.463 23.9267 257.217 24.02 256.91 24.02ZM273.12 24.08C272.013 24.08 271.026 23.8467 270.16 23.38C269.306 22.9 268.633 22.2467 268.14 21.42C267.66 20.58 267.42 19.62 267.42 18.54C267.42 17.4467 267.646 16.4867 268.1 15.66C268.566 14.82 269.206 14.1667 270.02 13.7C270.833 13.22 271.766 12.98 272.82 12.98C273.86 12.98 274.753 13.2133 275.5 13.68C276.246 14.1333 276.813 14.7667 277.2 15.58C277.6 16.38 277.8 17.3067 277.8 18.36C277.8 18.6133 277.713 18.8267 277.54 19C277.366 19.16 277.146 19.24 276.88 19.24H268.82V17.64H276.82L276 18.2C275.986 17.5333 275.853 16.94 275.6 16.42C275.346 15.8867 274.986 15.4667 274.52 15.16C274.053 14.8533 273.486 14.7 272.82 14.7C272.06 14.7 271.406 14.8667 270.86 15.2C270.326 15.5333 269.92 15.9933 269.64 16.58C269.36 17.1533 269.22 17.8067 269.22 18.54C269.22 19.2733 269.386 19.9267 269.72 20.5C270.053 21.0733 270.513 21.5267 271.1 21.86C271.686 22.1933 272.36 22.36 273.12 22.36C273.533 22.36 273.953 22.2867 274.38 22.14C274.82 21.98 275.173 21.8 275.44 21.6C275.64 21.4533 275.853 21.38 276.08 21.38C276.32 21.3667 276.526 21.4333 276.7 21.58C276.926 21.78 277.046 22 277.06 22.24C277.073 22.48 276.966 22.6867 276.74 22.86C276.286 23.22 275.72 23.5133 275.04 23.74C274.373 23.9667 273.733 24.08 273.12 24.08ZM281.422 28.68C281.128 28.68 280.882 28.58 280.682 28.38C280.495 28.1933 280.402 27.9533 280.402 27.66V18.54C280.415 17.4867 280.662 16.54 281.142 15.7C281.622 14.86 282.275 14.2 283.102 13.72C283.928 13.2267 284.862 12.98 285.902 12.98C286.955 12.98 287.895 13.2267 288.722 13.72C289.548 14.2 290.202 14.86 290.682 15.7C291.175 16.54 291.422 17.4867 291.422 18.54C291.422 19.5933 291.195 20.54 290.742 21.38C290.302 22.2067 289.695 22.8667 288.922 23.36C288.148 23.84 287.275 24.08 286.302 24.08C285.515 24.08 284.788 23.92 284.122 23.6C283.468 23.2667 282.908 22.82 282.442 22.26V27.66C282.442 27.9533 282.348 28.1933 282.162 28.38C281.975 28.58 281.728 28.68 281.422 28.68ZM285.902 22.28C286.582 22.28 287.188 22.12 287.722 21.8C288.255 21.4667 288.675 21.02 288.982 20.46C289.302 19.8867 289.462 19.2467 289.462 18.54C289.462 17.82 289.302 17.18 288.982 16.62C288.675 16.0467 288.255 15.6 287.722 15.28C287.188 14.9467 286.582 14.78 285.902 14.78C285.235 14.78 284.628 14.9467 284.082 15.28C283.548 15.6 283.128 16.0467 282.822 16.62C282.515 17.18 282.362 17.82 282.362 18.54C282.362 19.2467 282.515 19.8867 282.822 20.46C283.128 21.02 283.548 21.4667 284.082 21.8C284.628 22.12 285.235 22.28 285.902 22.28ZM299.604 24.08C298.497 24.08 297.511 23.8467 296.644 23.38C295.791 22.9 295.117 22.2467 294.624 21.42C294.144 20.58 293.904 19.62 293.904 18.54C293.904 17.4467 294.131 16.4867 294.584 15.66C295.051 14.82 295.691 14.1667 296.504 13.7C297.317 13.22 298.251 12.98 299.304 12.98C300.344 12.98 301.237 13.2133 301.984 13.68C302.731 14.1333 303.297 14.7667 303.684 15.58C304.084 16.38 304.284 17.3067 304.284 18.36C304.284 18.6133 304.197 18.8267 304.024 19C303.851 19.16 303.631 19.24 303.364 19.24H295.304V17.64H303.304L302.484 18.2C302.471 17.5333 302.337 16.94 302.084 16.42C301.831 15.8867 301.471 15.4667 301.004 15.16C300.537 14.8533 299.971 14.7 299.304 14.7C298.544 14.7 297.891 14.8667 297.344 15.2C296.811 15.5333 296.404 15.9933 296.124 16.58C295.844 17.1533 295.704 17.8067 295.704 18.54C295.704 19.2733 295.871 19.9267 296.204 20.5C296.537 21.0733 296.997 21.5267 297.584 21.86C298.171 22.1933 298.844 22.36 299.604 22.36C300.017 22.36 300.437 22.2867 300.864 22.14C301.304 21.98 301.657 21.8 301.924 21.6C302.124 21.4533 302.337 21.38 302.564 21.38C302.804 21.3667 303.011 21.4333 303.184 21.58C303.411 21.78 303.531 22 303.544 22.24C303.557 22.48 303.451 22.6867 303.224 22.86C302.771 23.22 302.204 23.5133 301.524 23.74C300.857 23.9667 300.217 24.08 299.604 24.08ZM311.455 24.08C310.389 24.08 309.435 23.84 308.595 23.36C307.769 22.8667 307.115 22.2067 306.635 21.38C306.169 20.54 305.935 19.5933 305.935 18.54C305.935 17.46 306.169 16.5 306.635 15.66C307.102 14.82 307.742 14.1667 308.555 13.7C309.369 13.22 310.302 12.98 311.355 12.98C312.142 12.98 312.862 13.1333 313.515 13.44C314.169 13.7333 314.755 14.18 315.275 14.78C315.462 14.9933 315.529 15.2133 315.475 15.44C315.422 15.6667 315.275 15.8667 315.035 16.04C314.849 16.1733 314.642 16.22 314.415 16.18C314.189 16.1267 313.982 16.0067 313.795 15.82C313.142 15.1267 312.329 14.78 311.355 14.78C310.675 14.78 310.075 14.94 309.555 15.26C309.035 15.5667 308.629 16 308.335 16.56C308.042 17.12 307.895 17.78 307.895 18.54C307.895 19.26 308.042 19.9 308.335 20.46C308.642 21.02 309.062 21.4667 309.595 21.8C310.129 22.12 310.749 22.28 311.455 22.28C311.922 22.28 312.329 22.2267 312.675 22.12C313.035 22 313.362 21.82 313.655 21.58C313.869 21.4067 314.089 21.3133 314.315 21.3C314.542 21.2733 314.742 21.3333 314.915 21.48C315.142 21.6667 315.269 21.88 315.295 22.12C315.322 22.3467 315.242 22.5533 315.055 22.74C314.095 23.6333 312.895 24.08 311.455 24.08ZM323.067 24.08C322.094 24.08 321.22 23.84 320.447 23.36C319.674 22.8667 319.06 22.2067 318.607 21.38C318.167 20.54 317.947 19.5933 317.947 18.54C317.947 17.4867 318.187 16.54 318.667 15.7C319.16 14.86 319.82 14.2 320.647 13.72C321.487 13.2267 322.427 12.98 323.467 12.98C324.507 12.98 325.44 13.2267 326.267 13.72C327.094 14.2 327.747 14.86 328.227 15.7C328.72 16.54 328.967 17.4867 328.967 18.54H328.187C328.187 19.5933 327.96 20.54 327.507 21.38C327.067 22.2067 326.46 22.8667 325.687 23.36C324.914 23.84 324.04 24.08 323.067 24.08ZM323.467 22.28C324.147 22.28 324.754 22.12 325.287 21.8C325.82 21.4667 326.24 21.02 326.547 20.46C326.854 19.8867 327.007 19.2467 327.007 18.54C327.007 17.82 326.854 17.18 326.547 16.62C326.24 16.0467 325.82 15.6 325.287 15.28C324.754 14.9467 324.147 14.78 323.467 14.78C322.8 14.78 322.194 14.9467 321.647 15.28C321.114 15.6 320.687 16.0467 320.367 16.62C320.06 17.18 319.907 17.82 319.907 18.54C319.907 19.2467 320.06 19.8867 320.367 20.46C320.687 21.02 321.114 21.4667 321.647 21.8C322.194 22.12 322.8 22.28 323.467 22.28ZM327.947 24.02C327.654 24.02 327.407 23.9267 327.207 23.74C327.02 23.54 326.927 23.2933 326.927 23V19.94L327.307 17.82L328.967 18.54V23C328.967 23.2933 328.867 23.54 328.667 23.74C328.48 23.9267 328.24 24.02 327.947 24.02ZM333.023 24C332.73 24 332.483 23.9067 332.283 23.72C332.096 23.52 332.003 23.2733 332.003 22.98V14.08C332.003 13.7733 332.096 13.5267 332.283 13.34C332.483 13.1533 332.73 13.06 333.023 13.06C333.45 13.06 333.81 13.2667 334.103 13.68L338.243 19.66L342.383 13.68C342.676 13.2667 343.036 13.06 343.463 13.06C343.77 13.06 344.016 13.1533 344.203 13.34C344.39 13.5267 344.483 13.7733 344.483 14.08V22.98C344.483 23.2733 344.39 23.52 344.203 23.72C344.016 23.9067 343.77 24 343.463 24C343.17 24 342.923 23.9067 342.723 23.72C342.536 23.52 342.443 23.2733 342.443 22.98V15.7L342.963 15.86L339.283 21.06C338.95 21.5267 338.59 21.76 338.203 21.76C337.816 21.7467 337.463 21.5133 337.143 21.06L333.523 15.86L334.043 15.7V22.98C334.043 23.2733 333.95 23.52 333.763 23.72C333.576 23.9067 333.33 24 333.023 24Z" fill="black"/>
<path d="M13.04 23C12.7467 23 12.5 22.9 12.3 22.7C12.1 22.5 12 22.2533 12 21.96V8.42C12 8.11333 12.1 7.86667 12.3 7.68C12.5 7.48 12.7467 7.38 13.04 7.38H23.68C23.9867 7.38 24.2333 7.48 24.42 7.68C24.62 7.86667 24.72 8.11333 24.72 8.42V21.96C24.72 22.2533 24.62 22.5 24.42 22.7C24.2333 22.9 23.9867 23 23.68 23C23.3867 23 23.14 22.9 22.94 22.7C22.74 22.5 22.64 22.2533 22.64 21.96V9.22H14.08V21.96C14.08 22.2533 13.98 22.5 13.78 22.7C13.5933 22.9 13.3467 23 13.04 23ZM33.4788 23.08C32.3988 23.08 31.4454 22.8467 30.6188 22.38C29.7921 21.9 29.1388 21.2467 28.6588 20.42C28.1921 19.58 27.9588 18.62 27.9588 17.54C27.9588 16.4467 28.1921 15.4867 28.6588 14.66C29.1388 13.82 29.7921 13.1667 30.6188 12.7C31.4454 12.22 32.3988 11.98 33.4788 11.98C34.5454 11.98 35.4921 12.22 36.3188 12.7C37.1454 13.1667 37.7921 13.82 38.2588 14.66C38.7388 15.4867 38.9788 16.4467 38.9788 17.54C38.9788 18.62 38.7454 19.58 38.2788 20.42C37.8121 21.2467 37.1654 21.9 36.3388 22.38C35.5121 22.8467 34.5588 23.08 33.4788 23.08ZM33.4788 21.28C34.1721 21.28 34.7854 21.12 35.3188 20.8C35.8521 20.48 36.2654 20.04 36.5588 19.48C36.8654 18.92 37.0188 18.2733 37.0188 17.54C37.0188 16.8067 36.8654 16.16 36.5588 15.6C36.2654 15.0267 35.8521 14.58 35.3188 14.26C34.7854 13.94 34.1721 13.78 33.4788 13.78C32.7854 13.78 32.1721 13.94 31.6388 14.26C31.1054 14.58 30.6854 15.0267 30.3788 15.6C30.0721 16.16 29.9188 16.8067 29.9188 17.54C29.9188 18.2733 30.0721 18.92 30.3788 19.48C30.6854 20.04 31.1054 20.48 31.6388 20.8C32.1721 21.12 32.7854 21.28 33.4788 21.28ZM46.5748 23.08C45.5748 23.08 44.6882 22.8467 43.9148 22.38C43.1548 21.9 42.5548 21.2467 42.1148 20.42C41.6748 19.58 41.4548 18.62 41.4548 17.54C41.4548 16.4467 41.6882 15.4867 42.1548 14.66C42.6348 13.82 43.2882 13.1667 44.1148 12.7C44.9415 12.22 45.8948 11.98 46.9748 11.98C48.0415 11.98 48.9882 12.22 49.8148 12.7C50.6415 13.1667 51.2882 13.82 51.7548 14.66C52.2348 15.4867 52.4748 16.4467 52.4748 17.54H51.2948C51.2948 18.62 51.0882 19.58 50.6748 20.42C50.2748 21.2467 49.7215 21.9 49.0148 22.38C48.3082 22.8467 47.4948 23.08 46.5748 23.08ZM46.9348 27.54C45.9882 27.54 45.1015 27.3533 44.2748 26.98C43.4482 26.6067 42.7482 26.06 42.1748 25.34C42.0015 25.1133 41.9348 24.88 41.9748 24.64C42.0282 24.4 42.1615 24.2067 42.3748 24.06C42.6148 23.9 42.8615 23.8467 43.1148 23.9C43.3815 23.9533 43.5948 24.0867 43.7548 24.3C44.1148 24.7533 44.5682 25.1067 45.1148 25.36C45.6615 25.6133 46.2815 25.74 46.9748 25.74C47.6148 25.74 48.2015 25.5867 48.7348 25.28C49.2815 24.9733 49.7148 24.52 50.0348 23.92C50.3548 23.32 50.5148 22.5867 50.5148 21.72V18.88L51.1748 17.12L52.4748 17.54V21.86C52.4748 22.9133 52.2415 23.8667 51.7748 24.72C51.3082 25.5867 50.6548 26.2733 49.8148 26.78C48.9882 27.2867 48.0282 27.54 46.9348 27.54ZM46.9748 21.28C47.6682 21.28 48.2815 21.12 48.8148 20.8C49.3482 20.48 49.7615 20.04 50.0548 19.48C50.3615 18.92 50.5148 18.2733 50.5148 17.54C50.5148 16.8067 50.3615 16.16 50.0548 15.6C49.7615 15.0267 49.3482 14.58 48.8148 14.26C48.2815 13.94 47.6682 13.78 46.9748 13.78C46.2815 13.78 45.6682 13.94 45.1348 14.26C44.6015 14.58 44.1815 15.0267 43.8748 15.6C43.5682 16.16 43.4148 16.8067 43.4148 17.54C43.4148 18.2733 43.5682 18.92 43.8748 19.48C44.1815 20.04 44.6015 20.48 45.1348 20.8C45.6682 21.12 46.2815 21.28 46.9748 21.28ZM60.5109 23.08C59.4443 23.08 58.4976 22.86 57.6709 22.42C56.8443 21.98 56.1976 21.3733 55.7309 20.6C55.2643 19.8133 55.0243 18.92 55.0109 17.92H55.9909C55.9909 16.9067 56.1976 16.02 56.6109 15.26C57.0376 14.4867 57.6176 13.88 58.3509 13.44C59.0976 13 59.9509 12.78 60.9109 12.78C61.8709 12.78 62.7176 13 63.4509 13.44C64.1976 13.88 64.7776 14.4867 65.1909 15.26C65.6176 16.02 65.8309 16.9067 65.8309 17.92C65.8309 18.92 65.6043 19.8133 65.1509 20.6C64.6976 21.3733 64.0709 21.98 63.2709 22.42C62.4709 22.86 61.5509 23.08 60.5109 23.08ZM60.5109 21.28C61.1776 21.28 61.7576 21.14 62.2509 20.86C62.7576 20.5667 63.1509 20.1667 63.4309 19.66C63.7243 19.1533 63.8709 18.5733 63.8709 17.92C63.8709 17.2667 63.7243 16.6933 63.4309 16.2C63.1509 15.6933 62.7576 15.3 62.2509 15.02C61.7576 14.7267 61.1776 14.58 60.5109 14.58C59.8176 14.58 59.2043 14.7267 58.6709 15.02C58.1376 15.3 57.7176 15.6933 57.4109 16.2C57.1176 16.6933 56.9709 17.2667 56.9709 17.92C56.9709 18.5733 57.1176 19.1533 57.4109 19.66C57.7176 20.1667 58.1376 20.5667 58.6709 20.86C59.2043 21.14 59.8176 21.28 60.5109 21.28ZM55.0109 17.92L55.0309 15.66C55.0443 14.0867 55.4776 12.6467 56.3309 11.34C57.1976 10.0333 58.5376 8.97333 60.3509 8.16L64.0909 6.5C64.3576 6.39333 64.5976 6.38 64.8109 6.46C65.0243 6.52667 65.1776 6.68 65.2709 6.92C65.3643 7.17333 65.3843 7.40667 65.3309 7.62C65.2909 7.82 65.0976 8 64.7509 8.16L60.6909 10.02C59.7576 10.4467 58.9909 10.9533 58.3909 11.54C57.7909 12.1267 57.3443 12.7867 57.0509 13.52C56.7709 14.24 56.6176 15.02 56.5909 15.86L56.5509 17.92H55.0109ZM73.8303 23.08C72.7503 23.08 71.797 22.8467 70.9703 22.38C70.1436 21.9 69.4903 21.2467 69.0103 20.42C68.5436 19.58 68.3103 18.62 68.3103 17.54C68.3103 16.4467 68.5436 15.4867 69.0103 14.66C69.4903 13.82 70.1436 13.1667 70.9703 12.7C71.797 12.22 72.7503 11.98 73.8303 11.98C74.897 11.98 75.8436 12.22 76.6703 12.7C77.497 13.1667 78.1436 13.82 78.6103 14.66C79.0903 15.4867 79.3303 16.4467 79.3303 17.54C79.3303 18.62 79.097 19.58 78.6303 20.42C78.1636 21.2467 77.517 21.9 76.6903 22.38C75.8636 22.8467 74.9103 23.08 73.8303 23.08ZM73.8303 21.28C74.5236 21.28 75.137 21.12 75.6703 20.8C76.2036 20.48 76.617 20.04 76.9103 19.48C77.217 18.92 77.3703 18.2733 77.3703 17.54C77.3703 16.8067 77.217 16.16 76.9103 15.6C76.617 15.0267 76.2036 14.58 75.6703 14.26C75.137 13.94 74.5236 13.78 73.8303 13.78C73.137 13.78 72.5236 13.94 71.9903 14.26C71.457 14.58 71.037 15.0267 70.7303 15.6C70.4236 16.16 70.2703 16.8067 70.2703 17.54C70.2703 18.2733 70.4236 18.92 70.7303 19.48C71.037 20.04 71.457 20.48 71.9903 20.8C72.5236 21.12 73.137 21.28 73.8303 21.28ZM83.3864 27.68C83.0931 27.68 82.8464 27.58 82.6464 27.38C82.4597 27.1933 82.3664 26.9533 82.3664 26.66V17.54C82.3797 16.4867 82.6264 15.54 83.1064 14.7C83.5864 13.86 84.2397 13.2 85.0664 12.72C85.8931 12.2267 86.8264 11.98 87.8664 11.98C88.9197 11.98 89.8597 12.2267 90.6864 12.72C91.5131 13.2 92.1664 13.86 92.6464 14.7C93.1397 15.54 93.3864 16.4867 93.3864 17.54C93.3864 18.5933 93.1597 19.54 92.7064 20.38C92.2664 21.2067 91.6597 21.8667 90.8864 22.36C90.1131 22.84 89.2397 23.08 88.2664 23.08C87.4797 23.08 86.7531 22.92 86.0864 22.6C85.4331 22.2667 84.8731 21.82 84.4064 21.26V26.66C84.4064 26.9533 84.3131 27.1933 84.1264 27.38C83.9397 27.58 83.6931 27.68 83.3864 27.68ZM87.8664 21.28C88.5464 21.28 89.1531 21.12 89.6864 20.8C90.2197 20.4667 90.6397 20.02 90.9464 19.46C91.2664 18.8867 91.4264 18.2467 91.4264 17.54C91.4264 16.82 91.2664 16.18 90.9464 15.62C90.6397 15.0467 90.2197 14.6 89.6864 14.28C89.1531 13.9467 88.5464 13.78 87.8664 13.78C87.1997 13.78 86.5931 13.9467 86.0464 14.28C85.5131 14.6 85.0931 15.0467 84.7864 15.62C84.4797 16.18 84.3264 16.82 84.3264 17.54C84.3264 18.2467 84.4797 18.8867 84.7864 19.46C85.0931 20.02 85.5131 20.4667 86.0464 20.8C86.5931 21.12 87.1997 21.28 87.8664 21.28ZM111.168 22.76C110.995 22.92 110.748 23 110.428 23C110.122 22.9867 109.882 22.8933 109.708 22.72L104.848 17.5L109.428 12.38C109.602 12.1933 109.842 12.0867 110.148 12.06C110.468 12.0333 110.715 12.1 110.888 12.26C111.088 12.4467 111.202 12.66 111.228 12.9C111.255 13.1267 111.182 13.3333 111.008 13.52L107.388 17.4L111.228 21.52C111.402 21.6933 111.488 21.9 111.488 22.14C111.488 22.3667 111.382 22.5733 111.168 22.76ZM103.248 23.02C102.955 23.02 102.722 22.9267 102.548 22.74C102.375 22.54 102.288 22.2933 102.288 22V13.08C102.288 12.7733 102.375 12.5267 102.548 12.34C102.722 12.1533 102.955 12.06 103.248 12.06C103.555 12.06 103.802 12.1533 103.988 12.34C104.188 12.5267 104.288 12.7733 104.288 13.08V16.42H106.848V18.3H104.288V22C104.288 22.2933 104.188 22.54 103.988 22.74C103.802 22.9267 103.555 23.02 103.248 23.02ZM117.551 23.08C116.578 23.08 115.705 22.84 114.931 22.36C114.158 21.8667 113.545 21.2067 113.091 20.38C112.651 19.54 112.431 18.5933 112.431 17.54C112.431 16.4867 112.671 15.54 113.151 14.7C113.645 13.86 114.305 13.2 115.131 12.72C115.971 12.2267 116.911 11.98 117.951 11.98C118.991 11.98 119.925 12.2267 120.751 12.72C121.578 13.2 122.231 13.86 122.711 14.7C123.205 15.54 123.451 16.4867 123.451 17.54H122.671C122.671 18.5933 122.445 19.54 121.991 20.38C121.551 21.2067 120.945 21.8667 120.171 22.36C119.398 22.84 118.525 23.08 117.551 23.08ZM117.951 21.28C118.631 21.28 119.238 21.12 119.771 20.8C120.305 20.4667 120.725 20.02 121.031 19.46C121.338 18.8867 121.491 18.2467 121.491 17.54C121.491 16.82 121.338 16.18 121.031 15.62C120.725 15.0467 120.305 14.6 119.771 14.28C119.238 13.9467 118.631 13.78 117.951 13.78C117.285 13.78 116.678 13.9467 116.131 14.28C115.598 14.6 115.171 15.0467 114.851 15.62C114.545 16.18 114.391 16.82 114.391 17.54C114.391 18.2467 114.545 18.8867 114.851 19.46C115.171 20.02 115.598 20.4667 116.131 20.8C116.678 21.12 117.285 21.28 117.951 21.28ZM122.431 23.02C122.138 23.02 121.891 22.9267 121.691 22.74C121.505 22.54 121.411 22.2933 121.411 22V18.94L121.791 16.82L123.451 17.54V22C123.451 22.2933 123.351 22.54 123.151 22.74C122.965 22.9267 122.725 23.02 122.431 23.02ZM133.448 23.08V21.28C134.141 21.2667 134.748 21.1 135.268 20.78C135.801 20.46 136.214 20.02 136.508 19.46C136.814 18.9 136.968 18.26 136.968 17.54C136.968 16.8067 136.814 16.16 136.508 15.6C136.214 15.04 135.801 14.6 135.268 14.28C134.748 13.9467 134.141 13.78 133.448 13.78V11.98C134.528 11.98 135.474 12.22 136.288 12.7C137.114 13.18 137.761 13.84 138.228 14.68C138.694 15.5067 138.928 16.46 138.928 17.54C138.928 18.6067 138.694 19.56 138.228 20.4C137.761 21.2267 137.114 21.88 136.288 22.36C135.474 22.8267 134.528 23.0667 133.448 23.08ZM131.408 23.08C130.328 23.0667 129.374 22.8267 128.548 22.36C127.734 21.88 127.094 21.2267 126.628 20.4C126.161 19.56 125.928 18.6067 125.928 17.54C125.928 16.46 126.161 15.5067 126.628 14.68C127.094 13.84 127.734 13.18 128.548 12.7C129.374 12.22 130.328 11.98 131.408 11.98V13.78C130.728 13.78 130.121 13.9467 129.588 14.28C129.054 14.6 128.634 15.04 128.328 15.6C128.034 16.16 127.888 16.8067 127.888 17.54C127.888 18.26 128.034 18.9 128.328 19.46C128.634 20.02 129.054 20.46 129.588 20.78C130.121 21.1 130.728 21.2667 131.408 21.28V23.08ZM132.428 27.68C132.134 27.68 131.888 27.58 131.688 27.38C131.501 27.1933 131.408 26.9533 131.408 26.66V8.4C131.408 8.09333 131.501 7.84667 131.688 7.66C131.888 7.47333 132.134 7.38 132.428 7.38C132.734 7.38 132.981 7.47333 133.168 7.66C133.354 7.84667 133.448 8.09333 133.448 8.4V26.66C133.448 26.9533 133.354 27.1933 133.168 27.38C132.981 27.58 132.734 27.68 132.428 27.68ZM147.116 23.08C146.009 23.08 145.022 22.8467 144.156 22.38C143.302 21.9 142.629 21.2467 142.136 20.42C141.656 19.58 141.416 18.62 141.416 17.54C141.416 16.4467 141.642 15.4867 142.096 14.66C142.562 13.82 143.202 13.1667 144.016 12.7C144.829 12.22 145.762 11.98 146.816 11.98C147.856 11.98 148.749 12.2133 149.496 12.68C150.242 13.1333 150.809 13.7667 151.196 14.58C151.596 15.38 151.796 16.3067 151.796 17.36C151.796 17.6133 151.709 17.8267 151.536 18C151.362 18.16 151.142 18.24 150.876 18.24H142.816V16.64H150.816L149.996 17.2C149.982 16.5333 149.849 15.94 149.596 15.42C149.342 14.8867 148.982 14.4667 148.516 14.16C148.049 13.8533 147.482 13.7 146.816 13.7C146.056 13.7 145.402 13.8667 144.856 14.2C144.322 14.5333 143.916 14.9933 143.636 15.58C143.356 16.1533 143.216 16.8067 143.216 17.54C143.216 18.2733 143.382 18.9267 143.716 19.5C144.049 20.0733 144.509 20.5267 145.096 20.86C145.682 21.1933 146.356 21.36 147.116 21.36C147.529 21.36 147.949 21.2867 148.376 21.14C148.816 20.98 149.169 20.8 149.436 20.6C149.636 20.4533 149.849 20.38 150.076 20.38C150.316 20.3667 150.522 20.4333 150.696 20.58C150.922 20.78 151.042 21 151.056 21.24C151.069 21.48 150.962 21.6867 150.736 21.86C150.282 22.22 149.716 22.5133 149.036 22.74C148.369 22.9667 147.729 23.08 147.116 23.08ZM158.567 23.08C157.567 23.08 156.68 22.8467 155.907 22.38C155.147 21.9 154.547 21.2467 154.107 20.42C153.667 19.58 153.447 18.62 153.447 17.54C153.447 16.4467 153.68 15.4867 154.147 14.66C154.627 13.82 155.28 13.1667 156.107 12.7C156.934 12.22 157.887 11.98 158.967 11.98C160.034 11.98 160.98 12.22 161.807 12.7C162.634 13.1667 163.28 13.82 163.747 14.66C164.227 15.4867 164.467 16.4467 164.467 17.54H163.287C163.287 18.62 163.08 19.58 162.667 20.42C162.267 21.2467 161.714 21.9 161.007 22.38C160.3 22.8467 159.487 23.08 158.567 23.08ZM158.927 27.54C157.98 27.54 157.094 27.3533 156.267 26.98C155.44 26.6067 154.74 26.06 154.167 25.34C153.994 25.1133 153.927 24.88 153.967 24.64C154.02 24.4 154.154 24.2067 154.367 24.06C154.607 23.9 154.854 23.8467 155.107 23.9C155.374 23.9533 155.587 24.0867 155.747 24.3C156.107 24.7533 156.56 25.1067 157.107 25.36C157.654 25.6133 158.274 25.74 158.967 25.74C159.607 25.74 160.194 25.5867 160.727 25.28C161.274 24.9733 161.707 24.52 162.027 23.92C162.347 23.32 162.507 22.5867 162.507 21.72V18.88L163.167 17.12L164.467 17.54V21.86C164.467 22.9133 164.234 23.8667 163.767 24.72C163.3 25.5867 162.647 26.2733 161.807 26.78C160.98 27.2867 160.02 27.54 158.927 27.54ZM158.967 21.28C159.66 21.28 160.274 21.12 160.807 20.8C161.34 20.48 161.754 20.04 162.047 19.48C162.354 18.92 162.507 18.2733 162.507 17.54C162.507 16.8067 162.354 16.16 162.047 15.6C161.754 15.0267 161.34 14.58 160.807 14.26C160.274 13.94 159.66 13.78 158.967 13.78C158.274 13.78 157.66 13.94 157.127 14.26C156.594 14.58 156.174 15.0267 155.867 15.6C155.56 16.16 155.407 16.8067 155.407 17.54C155.407 18.2733 155.56 18.92 155.867 19.48C156.174 20.04 156.594 20.48 157.127 20.8C157.66 21.12 158.274 21.28 158.967 21.28ZM168.523 27.68C168.23 27.68 167.983 27.58 167.783 27.38C167.596 27.1933 167.503 26.9533 167.503 26.66V17.54C167.516 16.4867 167.763 15.54 168.243 14.7C168.723 13.86 169.376 13.2 170.203 12.72C171.03 12.2267 171.963 11.98 173.003 11.98C174.056 11.98 174.996 12.2267 175.823 12.72C176.65 13.2 177.303 13.86 177.783 14.7C178.276 15.54 178.523 16.4867 178.523 17.54C178.523 18.5933 178.296 19.54 177.843 20.38C177.403 21.2067 176.796 21.8667 176.023 22.36C175.25 22.84 174.376 23.08 173.403 23.08C172.616 23.08 171.89 22.92 171.223 22.6C170.57 22.2667 170.01 21.82 169.543 21.26V26.66C169.543 26.9533 169.45 27.1933 169.263 27.38C169.076 27.58 168.83 27.68 168.523 27.68ZM173.003 21.28C173.683 21.28 174.29 21.12 174.823 20.8C175.356 20.4667 175.776 20.02 176.083 19.46C176.403 18.8867 176.563 18.2467 176.563 17.54C176.563 16.82 176.403 16.18 176.083 15.62C175.776 15.0467 175.356 14.6 174.823 14.28C174.29 13.9467 173.683 13.78 173.003 13.78C172.336 13.78 171.73 13.9467 171.183 14.28C170.65 14.6 170.23 15.0467 169.923 15.62C169.616 16.18 169.463 16.82 169.463 17.54C169.463 18.2467 169.616 18.8867 169.923 19.46C170.23 20.02 170.65 20.4667 171.183 20.8C171.73 21.12 172.336 21.28 173.003 21.28Z" fill="black"/>
</svg>
